<svg xmlns="http://www.w3.org/2000/svg" xmlns:xlink="http://www.w3.org/1999/xlink" xmlns:lucid="lucid" width="1433" height="1131"><g transform="translate(-1120 -459)" lucid:page-tab-id="0_0"><path d="M1578.56 508a8 8 0 0 1 8-8h911.6a8 8 0 0 1 8 8v1033.35a8 8 0 0 1-8 8h-911.6a8 8 0 0 1-8-8z" stroke="#000" stroke-opacity="0" stroke-width="2" fill="#edf5ff"/><use xlink:href="#a" transform="matrix(1,0,0,1,1586.5583973254006,508) translate(410.28307291666664 28.02916666666667)"/><path d="M1800 1046.7c0 33.13-35.82 60-80 60s-80-26.87-80-60c0-33.15 35.82-60 80-60s80 26.85 80 60z" stroke="#000" stroke-width="2" fill="#fff"/><use xlink:href="#b" transform="matrix(1,0,0,1,1640,986.6912627088014) translate(13.523168945312486 64.966875)"/><use xlink:href="#c" transform="matrix(1,0,0,1,1640,986.6912627088014) translate(55.80638183593749 64.966875)"/><use xlink:href="#d" transform="matrix(1,0,0,1,1640,986.6912627088014) translate(91.3707080078125 64.966875)"/><use xlink:href="#e" transform="matrix(1,0,0,1,1640,986.6912627088014) translate(110.3830322265625 64.966875)"/><path d="M1803.52 1047.17h-2.02v-.95h2.02zm8.08 0h-4.04v-.95h4.04zm8.07 0h-4.04v-.95h4.04zm5.36 0h-1.32v-.95h1.33zm121.83 0h-2.02v-.95h2.02zm-6.05 0h-3.48v-.95h3.5z" stroke="#3a414a" stroke-width=".05" fill="#3a414a"/><path d="M1801.5 1047.17h-.5v-.87l.5-.08z" fill="#3a414a"/><path stroke="#3a414a" stroke-width=".05" fill="#3a414a"/><path d="M1960.35 1046.7l-13 7.5v-15z" fill="#3a414a"/><path d="M1961.3 1046.7l-14.4 8.3v-16.63zm-13.46 6.67l11.56-6.68-11.56-6.7z" stroke="#3a414a" stroke-width=".05" fill="#3a414a"/><use xlink:href="#f" transform="matrix(1,0,0,1,1825.0309781013293,1035.936054375468) translate(0 17.22222222222222)"/><use xlink:href="#g" transform="matrix(1,0,0,1,1938.9334824534524,1014.9365166150513) translate(0 16.216875)"/><path d="M2122.35 1046.7c0 33.13-35.8 60-80 60-44.18 0-80-26.87-80-60 0-33.15 35.82-60 80-60 44.2 0 80 26.85 80 60z" stroke="#000" stroke-width="2" fill="#fff"/><use xlink:href="#h" transform="matrix(1,0,0,1,1962.3536228693251,986.6912627088014) translate(44.88206054687499 57.466875)"/><use xlink:href="#i" transform="matrix(1,0,0,1,1962.3536228693251,986.6912627088014) translate(39.385161132812485 77.72162109375)"/><path d="M1720.47 985.2h-.94v-2.07h.94zm0-6.2h-.94v-4.1h.94zm0-8.24h-.94v-4.12h.94zm0-8.24h-.94v-4.12h.94zm0-8.24h-.94v-4.13h.94zm0-8.25h-.94v-4.12h.94zm0-8.24h-.94v-4.13h.94zm0-8.26h-.94v-4.12h.94zm0-8.24h-.94v-4.12h.94zm0-8.25h-.94v-4.12h.94zm0-8.24h-.94v-4.1h.94zm0-8.23h-.94v-4.13h.94zm0-8.25h-.94v-4.12h.94zm0-8.24h-.94v-4.12h.94zm0-8.25h-.94v-4.12h.94zm0-8.24h-.94v-4.13h.94zm.44-12.42l-.15.4-.2.84-.08.88v2.05h-.94v-2.08l.07-1 .24-1 .2-.46zm7.07-3.42h-1.95l-.88.07-.85.2-.4.17-.37-.88.47-.2 1-.23.98-.1h2zm7.9 0h-3.95v-.95h3.94zm7.88 0h-3.95v-.95h3.95zm7.9 0h-3.96v-.95h3.94zm7.87 0h-3.94v-.95h3.94zm7.9 0h-3.95v-.95h3.94zm7.88 0h-3.94v-.95h3.94zm7.9 0h-3.96v-.95h3.95zm7.88 0h-3.95v-.95h3.95zm7.88 0h-3.94v-.95h3.94zm7.9 0h-3.95v-.95h3.95zm5.6 0h-1.66v-.95h1.67zm120.6 0h-3.94v-.95h3.94zm7.9 0H1937v-.95h3.95zm5.9 0h-1.97v-.95h1.96zm-21.7 0h-.4v-.95h.4z" stroke="#3a414a" stroke-width=".05" fill="#3a414a"/><path d="M1720.47 985.7H1719.54v-.52h.94z" fill="#3a414a"/><path stroke="#3a414a" stroke-width=".05" fill="#3a414a"/><path d="M1960.35 847.3l-13 7.5v-15z" fill="#3a414a"/><path d="M1961.3 847.3l-14.4 8.3v-16.64zm-13.46 6.66l11.56-6.68-11.56-6.67z" stroke="#3a414a" stroke-width=".05" fill="#3a414a"/><use xlink:href="#f" transform="matrix(1,0,0,1,1812.4708521046966,836.5297167286888) translate(0 17.22222222222222)"/><use xlink:href="#j" transform="matrix(1,0,0,1,1935.2333262034517,815.5301789682721) translate(0 16.216875)"/><path d="M2122.35 847.3c0 33.12-35.8 60-80 60-44.18 0-80-26.88-80-60 0-33.15 35.82-60 80-60 44.2 0 80 26.85 80 60z" stroke="#000" stroke-width="2" fill="#fff"/><use xlink:href="#k" transform="matrix(1,0,0,1,1962.3536228693251,787.2849250620221) translate(44.88206054687499 57.466875)"/><use xlink:href="#l" transform="matrix(1,0,0,1,1962.3536228693251,787.2849250620221) translate(58.49148437499999 77.72162109375)"/><path d="M1724.3 1245.35l.84.2.88.07h1.95v.95h-2l-.98-.08-1-.24-.47-.2.36-.88zm11.56 1.22h-3.94v-.95h3.94zm7.9 0h-3.96v-.95h3.95zm7.88 0h-3.95v-.95h3.94zm7.88 0h-3.94v-.95h3.94zm7.9 0h-3.95v-.95h3.94zm7.88 0h-3.94v-.95h3.94zm7.9 0h-3.96v-.95h3.95zm7.88 0h-3.95v-.95h3.95zm7.88 0h-3.94v-.95h3.94zm5.85 0h-1.9v-.95h1.9zm120.37 0h-3.94v-.95h3.94zm7.9 0h-3.95v-.95h3.94zm7.88 0H1937v-.95h3.95zm5.9 0h-1.96v-.95h1.96zm-29.57 0h-.18v-.95h.18zm-196.8-6.5l.06.9.2.83.17.4-.87.37-.2-.47-.23-1-.07-.98v-2.08h.94zm0-6.16h-.95v-4.1h.94zm0-8.23h-.95v-4.12h.94zm0-8.24h-.95v-4.13h.94zm0-8.25h-.95v-4.12h.94zm0-8.24h-.95v-4.12h.94zm0-8.25h-.95v-4.13h.94zm0-8.25h-.95v-4.12h.94zm0-8.25h-.95v-4.12h.94zm0-8.24h-.95v-4.12h.94zm0-8.24h-.95v-4.13h.94zm0-8.25h-.95v-4.12h.94zm0-8.24h-.95v-4.12h.94zm0-8.25h-.95v-4.12h.94zm0-8.24h-.95v-4.12h.94zm0-8.24h-.95v-4.13h.94zm0-8.25h-.95v-2.06h.94z" stroke="#3a414a" stroke-width=".05" fill="#3a414a"/><path d="M1720 1107.7h.47v.5h-.94v-.52z" fill="#3a414a"/><path stroke="#3a414a" stroke-width=".05" fill="#3a414a"/><path d="M1960.35 1246.1l-13 7.5v-15z" fill="#3a414a"/><path d="M1961.3 1246.1l-14.4 8.32v-16.64zm-13.46 6.68l11.56-6.68-11.56-6.68z" stroke="#3a414a" stroke-width=".05" fill="#3a414a"/><use xlink:href="#f" transform="matrix(1,0,0,1,1804.8053302717492,1235.3423920222474) translate(0 17.22222222222222)"/><use xlink:href="#j" transform="matrix(1,0,0,1,1935.2333262034517,1214.3428542618308) translate(0 16.216875)"/><path d="M2122.35 1246.1c0 33.13-35.8 60-80 60-44.18 0-80-26.87-80-60 0-33.14 35.82-60 80-60 44.2 0 80 26.86 80 60z" stroke="#000" stroke-width="2" fill="#fff"/><use xlink:href="#m" transform="matrix(1,0,0,1,1962.3536228693251,1186.0976003555807) translate(44.88206054687499 57.466875)"/><use xlink:href="#n" transform="matrix(1,0,0,1,1962.3536228693251,1186.0976003555807) translate(60.53494140624999 77.72162109375)"/><path d="M2042.35 785.8v-76.42" stroke="#3a414a" fill="none"/><path d="M2042.83 786.3h-.96v-.53h.96zM2042.34 708.88h.5v.5h-.96v-.52z" stroke="#3a414a" stroke-width=".05" fill="#3a414a"/><use xlink:href="#o" transform="matrix(1,0,0,1,2027.5448240412002,707.7512229223086) translate(0 16.216875)"/><path d="M2122.35 647.88c0 33.14-35.8 60-80 60-44.18 0-80-26.86-80-60s35.82-60 80-60c44.2 0 80 26.86 80 60z" stroke="#000" stroke-width="2" fill="#fff"/><use xlink:href="#p" transform="matrix(1,0,0,1,1962.3536228693251,587.8785874152428) translate(19.588149414062492 64.966875)"/><use xlink:href="#q" transform="matrix(1,0,0,1,1962.3536228693251,587.8785874152428) translate(99.0868017578125 64.966875)"/><path d="M2123.85 847.3h159.36" stroke="#3a414a" fill="none"/><path d="M2123.87 847.76h-.53v-.95h.53zM2283.7 847.27v.48h-.5v-.95h.52z" stroke="#3a414a" stroke-width=".05" fill="#3a414a"/><use xlink:href="#o" transform="matrix(1,0,0,1,2277.302837744652,823.0301789682721) translate(0 16.216875)"/><path d="M2444.7 847.3c0 33.12-35.8 60-80 60-44.18 0-80-26.88-80-60 0-33.15 35.82-60 80-60 44.2 0 80 26.85 80 60z" stroke="#000" stroke-width="2" fill="#fff"/><use xlink:href="#p" transform="matrix(1,0,0,1,2284.7072457386503,787.2849250620221) translate(25.305742187499995 64.966875)"/><use xlink:href="#r" transform="matrix(1,0,0,1,2284.7072457386503,787.2849250620221) translate(104.80439453125 64.966875)"/><path d="M2139.86 1047.17h-2.02v-.95h2.02zm8.08 0h-4.04v-.95h4.04zm8.07 0H2152v-.95h4.03zm5.33 0h-1.28v-.95h1.28zm115.82 0h-4.04v-.95h4.05zm6.06 0h-2v-.95h2z" stroke="#3a414a" stroke-width=".05" fill="#3a414a"/><path d="M2137.34 1054.2l-13-7.5 13-7.5z" fill="#3a414a"/><path d="M2137.82 1055l-14.42-8.3 14.42-8.33zm-12.52-8.3l11.57 6.67V1040z" stroke="#3a414a" stroke-width=".05" fill="#3a414a"/><path d="M2283.7 1046.68v.4l-.5.1v-.96h.52z" fill="#3a414a"/><path stroke="#3a414a" stroke-width=".05" fill="#3a414a"/><use xlink:href="#s" transform="matrix(1,0,0,1,2161.3335463619355,1035.936054375468) translate(0 17.22222222222222)"/><path d="M2444.7 1046.7c0 33.13-35.8 60-80 60-44.18 0-80-26.87-80-60 0-33.15 35.82-60 80-60 44.2 0 80 26.85 80 60z" stroke="#000" stroke-width="2" fill="#fff"/><use xlink:href="#t" transform="matrix(1,0,0,1,2284.7072457386503,986.6912627088014) translate(24.23905761718749 57.466875)"/><use xlink:href="#u" transform="matrix(1,0,0,1,2284.7072457386503,986.6912627088014) translate(91.7467041015625 57.466875)"/><use xlink:href="#v" transform="matrix(1,0,0,1,2284.7072457386503,986.6912627088014) translate(28.751010742187496 77.72162109375)"/><use xlink:href="#w" transform="matrix(1,0,0,1,2284.7072457386503,986.6912627088014) translate(68.2551220703125 77.72162109375)"/><use xlink:href="#x" transform="matrix(1,0,0,1,2284.7072457386503,986.6912627088014) translate(83.00070800781249 77.72162109375)"/><path d="M1800 1445.5c0 33.14-35.82 60-80 60s-80-26.86-80-60c0-33.13 35.82-60 80-60s80 26.87 80 60z" stroke="#000" stroke-width="2" fill="#fff"/><use xlink:href="#y" transform="matrix(1,0,0,1,1640,1385.50393800236) translate(44.931103515625 46.216875)"/><use xlink:href="#z" transform="matrix(1,0,0,1,1640,1385.50393800236) translate(45.76483398437499 66.47162109375)"/><use xlink:href="#A" transform="matrix(1,0,0,1,1640,1385.50393800236) translate(43.909375 86.7263671875)"/><path d="M1819.38 1445.98h-2v-.95h2zm5.65 0h-1.67v-.95h1.67zm121.88 0h-3.98v-.95h3.98zm7.98 0h-4v-.95h4zm5.97 0h-2v-.95h2zm-21.9 0h-1.63v-.95h1.62z" stroke="#3a414a" stroke-width=".05" fill="#3a414a"/><path d="M1816.88 1450.14l-14.26-4.64 14.26-4.63z" fill="#3a414a"/><path d="M1817.36 1450.8l-16.28-5.3 16.28-5.3zm-13.2-5.3l12.25 3.98v-7.96z" stroke="#3a414a" stroke-width=".05" fill="#3a414a"/><path d="M1961.35 1445.5v.4l-.5.08v-.95h.52z" fill="#3a414a"/><path stroke="#3a414a" stroke-width=".05" fill="#3a414a"/><use xlink:href="#f" transform="matrix(1,0,0,1,1825.0309781013293,1434.7487296690267) translate(0 17.22222222222222)"/><path d="M2122.35 1445.5c0 33.14-35.8 60-80 60-44.18 0-80-26.86-80-60 0-33.13 35.82-60 80-60 44.2 0 80 26.87 80 60z" stroke="#000" stroke-width="2" fill="#fff"/><use xlink:href="#B" transform="matrix(1,0,0,1,1962.3536228693251,1385.50393800236) translate(48.470371093749996 57.466875)"/><use xlink:href="#C" transform="matrix(1,0,0,1,1962.3536228693251,1385.50393800236) translate(26.678945312499984 77.72162109375)"/><path d="M1578.56 508a8 8 0 0 1 8-8h911.6a8 8 0 0 1 8 8v1033.35a8 8 0 0 1-8 8h-911.6a8 8 0 0 1-8-8z" stroke="#000" stroke-opacity="0" stroke-width="2" fill="#edf5ff"/><use xlink:href="#a" transform="matrix(1,0,0,1,1586.5583973254006,508) translate(410.28307291666664 28.02916666666667)"/><path d="M1800 1046.7c0 33.13-35.82 60-80 60s-80-26.87-80-60c0-33.15 35.82-60 80-60s80 26.85 80 60z" stroke="#000" stroke-width="2" fill="#fff"/><use xlink:href="#b" transform="matrix(1,0,0,1,1640,986.6912627088014) translate(13.523168945312486 64.966875)"/><use xlink:href="#c" transform="matrix(1,0,0,1,1640,986.6912627088014) translate(55.80638183593749 64.966875)"/><use xlink:href="#d" transform="matrix(1,0,0,1,1640,986.6912627088014) translate(91.3707080078125 64.966875)"/><use xlink:href="#e" transform="matrix(1,0,0,1,1640,986.6912627088014) translate(110.3830322265625 64.966875)"/><path d="M1803.52 1047.17h-2.02v-.95h2.02zm8.08 0h-4.04v-.95h4.04zm8.07 0h-4.04v-.95h4.04zm5.36 0h-1.32v-.95h1.33zm121.83 0h-2.02v-.95h2.02zm-6.05 0h-3.48v-.95h3.5z" stroke="#3a414a" stroke-width=".05" fill="#3a414a"/><path d="M1801.5 1047.17h-.5v-.87l.5-.08z" fill="#3a414a"/><path stroke="#3a414a" stroke-width=".05" fill="#3a414a"/><path d="M1960.35 1046.7l-13 7.5v-15z" fill="#3a414a"/><path d="M1961.3 1046.7l-14.4 8.3v-16.63zm-13.46 6.67l11.56-6.68-11.56-6.7z" stroke="#3a414a" stroke-width=".05" fill="#3a414a"/><use xlink:href="#f" transform="matrix(1,0,0,1,1825.0309781013293,1035.936054375468) translate(0 17.22222222222222)"/><use xlink:href="#g" transform="matrix(1,0,0,1,1938.9334824534524,1014.9365166150513) translate(0 16.216875)"/><path d="M2122.35 1046.7c0 33.13-35.8 60-80 60-44.18 0-80-26.87-80-60 0-33.15 35.82-60 80-60 44.2 0 80 26.85 80 60z" stroke="#000" stroke-width="2" fill="#fff"/><use xlink:href="#h" transform="matrix(1,0,0,1,1962.3536228693251,986.6912627088014) translate(44.88206054687499 57.466875)"/><use xlink:href="#i" transform="matrix(1,0,0,1,1962.3536228693251,986.6912627088014) translate(39.385161132812485 77.72162109375)"/><path d="M1720.47 985.2h-.94v-2.07h.94zm0-6.2h-.94v-4.1h.94zm0-8.24h-.94v-4.12h.94zm0-8.24h-.94v-4.12h.94zm0-8.24h-.94v-4.13h.94zm0-8.25h-.94v-4.12h.94zm0-8.24h-.94v-4.13h.94zm0-8.26h-.94v-4.12h.94zm0-8.24h-.94v-4.12h.94zm0-8.25h-.94v-4.12h.94zm0-8.24h-.94v-4.1h.94zm0-8.23h-.94v-4.13h.94zm0-8.25h-.94v-4.12h.94zm0-8.24h-.94v-4.12h.94zm0-8.25h-.94v-4.12h.94zm0-8.24h-.94v-4.13h.94zm.44-12.42l-.15.4-.2.84-.08.88v2.05h-.94v-2.08l.07-1 .24-1 .2-.46zm7.07-3.42h-1.95l-.88.07-.85.2-.4.17-.37-.88.47-.2 1-.23.98-.1h2zm7.9 0h-3.95v-.95h3.94zm7.88 0h-3.95v-.95h3.95zm7.9 0h-3.96v-.95h3.94zm7.87 0h-3.94v-.95h3.94zm7.9 0h-3.95v-.95h3.94zm7.88 0h-3.94v-.95h3.94zm7.9 0h-3.96v-.95h3.95zm7.88 0h-3.95v-.95h3.95zm7.88 0h-3.94v-.95h3.94zm7.9 0h-3.95v-.95h3.95zm5.6 0h-1.66v-.95h1.67zm120.6 0h-3.94v-.95h3.94zm7.9 0H1937v-.95h3.95zm5.9 0h-1.97v-.95h1.96zm-21.7 0h-.4v-.95h.4z" stroke="#3a414a" stroke-width=".05" fill="#3a414a"/><path d="M1720.47 985.7H1719.54v-.52h.94z" fill="#3a414a"/><path stroke="#3a414a" stroke-width=".05" fill="#3a414a"/><path d="M1960.35 847.3l-13 7.5v-15z" fill="#3a414a"/><path d="M1961.3 847.3l-14.4 8.3v-16.64zm-13.46 6.66l11.56-6.68-11.56-6.67z" stroke="#3a414a" stroke-width=".05" fill="#3a414a"/><use xlink:href="#f" transform="matrix(1,0,0,1,1812.4708521046966,836.5297167286888) translate(0 17.22222222222222)"/><use xlink:href="#j" transform="matrix(1,0,0,1,1935.2333262034517,815.5301789682721) translate(0 16.216875)"/><path d="M2122.35 847.3c0 33.12-35.8 60-80 60-44.18 0-80-26.88-80-60 0-33.15 35.82-60 80-60 44.2 0 80 26.85 80 60z" stroke="#000" stroke-width="2" fill="#fff"/><use xlink:href="#k" transform="matrix(1,0,0,1,1962.3536228693251,787.2849250620221) translate(44.88206054687499 57.466875)"/><use xlink:href="#l" transform="matrix(1,0,0,1,1962.3536228693251,787.2849250620221) translate(58.49148437499999 77.72162109375)"/><path d="M1724.3 1245.35l.84.2.88.07h1.95v.95h-2l-.98-.08-1-.24-.47-.2.36-.88zm11.56 1.22h-3.94v-.95h3.94zm7.9 0h-3.96v-.95h3.95zm7.88 0h-3.95v-.95h3.94zm7.88 0h-3.94v-.95h3.94zm7.9 0h-3.95v-.95h3.94zm7.88 0h-3.94v-.95h3.94zm7.9 0h-3.96v-.95h3.95zm7.88 0h-3.95v-.95h3.95zm7.88 0h-3.94v-.95h3.94zm5.85 0h-1.9v-.95h1.9zm120.37 0h-3.94v-.95h3.94zm7.9 0h-3.95v-.95h3.94zm7.88 0H1937v-.95h3.95zm5.9 0h-1.96v-.95h1.96zm-29.57 0h-.18v-.95h.18zm-196.8-6.5l.06.9.2.83.17.4-.87.37-.2-.47-.23-1-.07-.98v-2.08h.94zm0-6.16h-.95v-4.1h.94zm0-8.23h-.95v-4.12h.94zm0-8.24h-.95v-4.13h.94zm0-8.25h-.95v-4.12h.94zm0-8.24h-.95v-4.12h.94zm0-8.25h-.95v-4.13h.94zm0-8.25h-.95v-4.12h.94zm0-8.25h-.95v-4.12h.94zm0-8.24h-.95v-4.12h.94zm0-8.24h-.95v-4.13h.94zm0-8.25h-.95v-4.12h.94zm0-8.24h-.95v-4.12h.94zm0-8.25h-.95v-4.12h.94zm0-8.24h-.95v-4.12h.94zm0-8.24h-.95v-4.13h.94zm0-8.25h-.95v-2.06h.94z" stroke="#3a414a" stroke-width=".05" fill="#3a414a"/><path d="M1720 1107.7h.47v.5h-.94v-.52z" fill="#3a414a"/><path stroke="#3a414a" stroke-width=".05" fill="#3a414a"/><path d="M1960.35 1246.1l-13 7.5v-15z" fill="#3a414a"/><path d="M1961.3 1246.1l-14.4 8.32v-16.64zm-13.46 6.68l11.56-6.68-11.56-6.68z" stroke="#3a414a" stroke-width=".05" fill="#3a414a"/><use xlink:href="#f" transform="matrix(1,0,0,1,1804.8053302717492,1235.3423920222474) translate(0 17.22222222222222)"/><use xlink:href="#j" transform="matrix(1,0,0,1,1935.2333262034517,1214.3428542618308) translate(0 16.216875)"/><path d="M2122.35 1246.1c0 33.13-35.8 60-80 60-44.18 0-80-26.87-80-60 0-33.14 35.82-60 80-60 44.2 0 80 26.86 80 60z" stroke="#000" stroke-width="2" fill="#fff"/><use xlink:href="#m" transform="matrix(1,0,0,1,1962.3536228693251,1186.0976003555807) translate(44.88206054687499 57.466875)"/><use xlink:href="#n" transform="matrix(1,0,0,1,1962.3536228693251,1186.0976003555807) translate(60.53494140624999 77.72162109375)"/><path d="M2042.35 785.8v-76.42" stroke="#3a414a" fill="none"/><path d="M2042.83 786.3h-.96v-.53h.96zM2042.34 708.88h.5v.5h-.96v-.52z" stroke="#3a414a" stroke-width=".05" fill="#3a414a"/><use xlink:href="#o" transform="matrix(1,0,0,1,2027.5448240412002,707.7512229223086) translate(0 16.216875)"/><path d="M2122.35 647.88c0 33.14-35.8 60-80 60-44.18 0-80-26.86-80-60s35.82-60 80-60c44.2 0 80 26.86 80 60z" stroke="#000" stroke-width="2" fill="#fff"/><use xlink:href="#p" transform="matrix(1,0,0,1,1962.3536228693251,587.8785874152428) translate(19.588149414062492 64.966875)"/><use xlink:href="#q" transform="matrix(1,0,0,1,1962.3536228693251,587.8785874152428) translate(99.0868017578125 64.966875)"/><path d="M2123.85 847.3h159.36" stroke="#3a414a" fill="none"/><path d="M2123.87 847.76h-.53v-.95h.53zM2283.7 847.27v.48h-.5v-.95h.52z" stroke="#3a414a" stroke-width=".05" fill="#3a414a"/><use xlink:href="#o" transform="matrix(1,0,0,1,2277.302837744652,823.0301789682721) translate(0 16.216875)"/><path d="M2444.7 847.3c0 33.12-35.8 60-80 60-44.18 0-80-26.88-80-60 0-33.15 35.82-60 80-60 44.2 0 80 26.85 80 60z" stroke="#000" stroke-width="2" fill="#fff"/><use xlink:href="#p" transform="matrix(1,0,0,1,2284.7072457386503,787.2849250620221) translate(25.305742187499995 64.966875)"/><use xlink:href="#r" transform="matrix(1,0,0,1,2284.7072457386503,787.2849250620221) translate(104.80439453125 64.966875)"/><path d="M2139.86 1047.17h-2.02v-.95h2.02zm8.08 0h-4.04v-.95h4.04zm8.07 0H2152v-.95h4.03zm5.33 0h-1.28v-.95h1.28zm115.82 0h-4.04v-.95h4.05zm6.06 0h-2v-.95h2z" stroke="#3a414a" stroke-width=".05" fill="#3a414a"/><path d="M2137.34 1054.2l-13-7.5 13-7.5z" fill="#3a414a"/><path d="M2137.82 1055l-14.42-8.3 14.42-8.33zm-12.52-8.3l11.57 6.67V1040z" stroke="#3a414a" stroke-width=".05" fill="#3a414a"/><path d="M2283.7 1046.68v.4l-.5.1v-.96h.52z" fill="#3a414a"/><path stroke="#3a414a" stroke-width=".05" fill="#3a414a"/><use xlink:href="#s" transform="matrix(1,0,0,1,2161.3335463619355,1035.936054375468) translate(0 17.22222222222222)"/><path d="M2444.7 1046.7c0 33.13-35.8 60-80 60-44.18 0-80-26.87-80-60 0-33.15 35.82-60 80-60 44.2 0 80 26.85 80 60z" stroke="#000" stroke-width="2" fill="#fff"/><use xlink:href="#t" transform="matrix(1,0,0,1,2284.7072457386503,986.6912627088014) translate(24.23905761718749 57.466875)"/><use xlink:href="#u" transform="matrix(1,0,0,1,2284.7072457386503,986.6912627088014) translate(91.7467041015625 57.466875)"/><use xlink:href="#v" transform="matrix(1,0,0,1,2284.7072457386503,986.6912627088014) translate(28.751010742187496 77.72162109375)"/><use xlink:href="#w" transform="matrix(1,0,0,1,2284.7072457386503,986.6912627088014) translate(68.2551220703125 77.72162109375)"/><use xlink:href="#x" transform="matrix(1,0,0,1,2284.7072457386503,986.6912627088014) translate(83.00070800781249 77.72162109375)"/><path d="M1800 1445.5c0 33.14-35.82 60-80 60s-80-26.86-80-60c0-33.13 35.82-60 80-60s80 26.87 80 60z" stroke="#000" stroke-width="2" fill="#fff"/><use xlink:href="#y" transform="matrix(1,0,0,1,1640,1385.50393800236) translate(44.931103515625 46.216875)"/><use xlink:href="#z" transform="matrix(1,0,0,1,1640,1385.50393800236) translate(45.76483398437499 66.47162109375)"/><use xlink:href="#A" transform="matrix(1,0,0,1,1640,1385.50393800236) translate(43.909375 86.7263671875)"/><path d="M1819.38 1445.98h-2v-.95h2zm5.65 0h-1.67v-.95h1.67zm121.88 0h-3.98v-.95h3.98zm7.98 0h-4v-.95h4zm5.97 0h-2v-.95h2zm-21.9 0h-1.63v-.95h1.62z" stroke="#3a414a" stroke-width=".05" fill="#3a414a"/><path d="M1816.88 1450.14l-14.26-4.64 14.26-4.63z" fill="#3a414a"/><path d="M1817.36 1450.8l-16.28-5.3 16.28-5.3zm-13.2-5.3l12.25 3.98v-7.96z" stroke="#3a414a" stroke-width=".05" fill="#3a414a"/><path d="M1961.35 1445.5v.4l-.5.08v-.95h.52z" fill="#3a414a"/><path stroke="#3a414a" stroke-width=".05" fill="#3a414a"/><g><use xlink:href="#f" transform="matrix(1,0,0,1,1825.0309781013293,1434.7487296690267) translate(0 17.22222222222222)"/></g><path d="M2122.35 1445.5c0 33.14-35.8 60-80 60-44.18 0-80-26.86-80-60 0-33.13 35.82-60 80-60 44.2 0 80 26.87 80 60z" stroke="#000" stroke-width="2" fill="#fff"/><g><use xlink:href="#B" transform="matrix(1,0,0,1,1962.3536228693251,1385.50393800236) translate(48.470371093749996 57.466875)"/><use xlink:href="#C" transform="matrix(1,0,0,1,1962.3536228693251,1385.50393800236) translate(26.678945312499984 77.72162109375)"/></g><path d="M1299.75 1259.75c0 10.9-8.84 19.75-19.75 19.75-10.9 0-19.75-8.84-19.75-19.75 0-10.9 8.84-19.75 19.75-19.75 10.9 0 19.75 8.84 19.75 19.75z" stroke="#3a414a" stroke-width="4" fill="#fff"/><path d="M1280 1279.5v49.3a20.7 20.7 0 0 0 3.2 11.07L1320 1398m-40-63.2l-40 63.2m0-98.75h80" stroke="#3a414a" stroke-width="4" fill="none"/><path d="M1240 1246a6 6 0 0 1 6-6h68a6 6 0 0 1 6 6v168a6 6 0 0 1-6 6h-68a6 6 0 0 1-6-6z" fill="none"/><g><use xlink:href="#D" transform="matrix(1,0,0,1,1160,1398) translate(86.54188368055556 21.52777777777778)"/></g><path d="M1638.5 1046.7H1456a6 6 0 0 0-6 6V1284a6 6 0 0 1-6 6h-79.5a6 6 0 0 0-6 6v38.5a6 6 0 0 1-6 6H1319" stroke="#3a414a" fill="none"/><path d="M1639 1046.68v.5h-.5v-.96h.5z" stroke="#3a414a" stroke-width=".05" fill="#3a414a"/><path d="M1319 1340.5h-.5M1344.08 1340.5H1474a6 6 0 0 1 6 6v93a6 6 0 0 0 6 6h152.5M1344.1 1340.5h-.52" stroke="#3a414a" fill="none"/><path d="M1639 1445.5V1445.97h-.5v-.95h.5z" stroke="#3a414a" stroke-width=".05" fill="#3a414a"/><path d="M1355 1340.1l1 .24.94.4.87.52.78.66.66.77.53.86.4.94.23 1 .07.98v177.5l.07.88.2.85.34.8.45.75.56.66.65.57.74.45.8.33.84.2.88.08h670.32l.88-.07.84-.2.8-.34.74-.45.66-.56.56-.65.46-.74.33-.8.2-.84.08-.88V1507h.95v17.02l-.08 1-.24.98-.38.94-.53.87-.67.78-.77.66-.87.53-.94.4-1 .23-1 .07H1366l-1-.07-.98-.24-.94-.4-.87-.52-.78-.66-.66-.77-.53-.86-.4-.94-.23-1-.07-.98v-177.5l-.07-.88-.2-.85-.34-.8-.45-.75-.56-.66-.65-.57-.74-.45-.8-.33-.84-.2-.88-.08h-8.2v-.94h8.24zM1345.78 1340.97h-.5v-.94h.5z" stroke="#3a414a" stroke-width=".05" fill="#3a414a"/><path d="M2042.34 1506.5h.5v.52h-.96v-.53z" fill="#3a414a"/><path stroke="#3a414a" stroke-width=".05" fill="#3a414a"/><path d="M1299.75 1019.75c0 10.9-8.84 19.75-19.75 19.75-10.9 0-19.75-8.84-19.75-19.75 0-10.9 8.84-19.75 19.75-19.75 10.9 0 19.75 8.84 19.75 19.75z" stroke="#3a414a" stroke-width="4" fill="#fff"/><path d="M1280 1039.5v49.3a20.7 20.7 0 0 0 3.2 11.07L1320 1158m-40-63.2l-40 63.2m0-98.75h80" stroke="#3a414a" stroke-width="4" fill="none"/><path d="M1240 1006a6 6 0 0 1 6-6h68a6 6 0 0 1 6 6v168a6 6 0 0 1-6 6h-68a6 6 0 0 1-6-6z" fill="none"/><g><use xlink:href="#E" transform="matrix(1,0,0,1,1160,1158) translate(76.97157118055556 21.52777777777778)"/></g><path d="M1196.85 1080H1166a6 6 0 0 0-6 6v248a6 6 0 0 0 6 6h73.5" stroke="#3a414a" fill="none"/><path d="M1219 1080l-21.65 12.5v-25z" stroke="#3a414a" fill="#fff"/><path d="M1239.5 1340h.5" stroke="#3a414a" fill="none"/><defs><path d="M49 0l509-1490h400L1480 0h-339l-115-346H497L386 0H49zm524-585h374c-75-213-124-402-192-666-66 268-110 453-182 666" id="F"/><path d="M537 19C279 19 81-185 81-557c0-382 206-575 454-575 190 0 278 113 318 202h10v-560h300V0H868v-179h-15C812-89 719 19 537 19zm92-241c153 0 240-134 240-336 0-203-86-334-240-334-158 0-240 138-240 334 0 197 84 336 240 336" id="G"/><path d="M128 0v-1118h278l12 217c60-163 185-234 319-234 143 0 236 81 288 251 63-172 205-251 359-251 205 0 357 138 357 381V0h-301v-697c0-126-76-187-177-187-114 0-184 79-184 196V0H789v-705c0-109-72-179-174-179-106 0-187 74-187 208V0H128" id="H"/><path d="M128 0v-1118h300V0H128zm150-1264c-91 0-165-68-165-154 0-85 74-154 165-154 90 0 165 69 165 154 0 86-75 154-165 154" id="I"/><path d="M428-647V0H128v-1118h283l4 231c63-156 176-245 348-245 232 0 384 159 384 421V0H847v-659c0-139-76-222-202-222-128 0-217 86-217 234" id="J"/><g id="a"><use transform="matrix(0.014127604166666669,0,0,0.014127604166666669,0,0)" xlink:href="#F"/><use transform="matrix(0.014127604166666669,0,0,0.014127604166666669,20.937109375000002,0)" xlink:href="#G"/><use transform="matrix(0.014127604166666669,0,0,0.014127604166666669,39.17584635416667,0)" xlink:href="#H"/><use transform="matrix(0.014127604166666669,0,0,0.014127604166666669,65.58033854166668,0)" xlink:href="#I"/><use transform="matrix(0.014127604166666669,0,0,0.014127604166666669,73.42115885416668,0)" xlink:href="#J"/></g><path d="M783 20c-382 0-661-292-661-764 0-473 279-766 661-766 302 0 548 182 601 489h-190c-42-204-217-313-411-313-268 0-476 208-476 590 0 381 209 588 476 588 195 0 369-110 411-313h190c-52 303-296 489-601 489" id="K"/><path d="M158 0v-1118h174v172h12c41-113 157-188 290-188 26 0 70 2 91 3v181c-11-2-60-10-108-10-161 0-279 109-279 260V0H158" id="L"/><path d="M628 24c-324 0-524-230-524-574 0-343 198-582 503-582 237 0 487 146 487 559v75H286c9 234 145 362 343 362 132 0 231-58 273-172l174 48C1024-91 857 24 628 24zM287-650h624c-17-190-120-322-304-322-192 0-309 151-320 322" id="M"/><path d="M471 26C259 26 90-98 90-318c0-256 228-303 435-329 202-27 287-16 287-108 0-139-79-219-234-219-161 0-248 86-283 164l-173-57c86-203 278-265 451-265 150 0 419 46 419 395V0H815v-152h-12C765-73 660 26 471 26zm31-159c199 0 310-134 310-271v-155c-30 35-226 55-295 64-131 17-246 59-246 186 0 116 97 176 231 176" id="N"/><g id="b"><use transform="matrix(0.008173828125000001,0,0,0.008173828125000001,0,0)" xlink:href="#K"/><use transform="matrix(0.008173828125000001,0,0,0.008173828125000001,12.228046875000002,0)" xlink:href="#L"/><use transform="matrix(0.008173828125000001,0,0,0.008173828125000001,18.252158203125003,0)" xlink:href="#M"/><use transform="matrix(0.008173828125000001,0,0,0.008173828125000001,28.175185546875007,0)" xlink:href="#N"/></g><path d="M598-1118v154H368v674c0 100 37 144 132 144 23 0 62-6 92-12L629-6c-37 13-88 20-134 20-193 0-307-107-307-290v-688H20v-154h168v-266h180v266h230" id="O"/><g id="c"><use transform="matrix(0.008173828125000001,0,0,0.008173828125000001,0,0)" xlink:href="#L"/><use transform="matrix(0.008173828125000001,0,0,0.008173828125000001,6.0241113281250005,0)" xlink:href="#M"/><use transform="matrix(0.008173828125000001,0,0,0.008173828125000001,15.783662109375001,0)" xlink:href="#O"/><use transform="matrix(0.008173828125000001,0,0,0.008173828125000001,21.096650390625,0)" xlink:href="#M"/></g><path d="M577 24c-279 0-473-224-473-580 0-354 195-576 474-576 218 0 287 134 324 193h14v-551h180V0H922v-173h-20C865-111 790 24 577 24zm27-161c203 0 314-172 314-421 0-247-108-413-314-413-212 0-317 181-317 413 0 235 108 421 317 421" id="P"/><path d="M158 0v-1118h180V0H158zm91-1301c-68 0-125-53-125-119s57-119 125-119c69 0 126 53 126 119s-57 119-126 119" id="Q"/><g id="d"><use transform="matrix(0.008173828125000001,0,0,0.008173828125000001,0,0)" xlink:href="#P"/><use transform="matrix(0.008173828125000001,0,0,0.008173828125000001,10.249980468750001,0)" xlink:href="#Q"/></g><path d="M158 418v-1536h174v179h20c37-59 106-193 324-193 279 0 474 222 474 576 0 356-194 580-473 580-213 0-288-135-325-197h-14v591H158zm492-555c209 0 317-186 317-421 0-232-105-413-317-413-206 0-314 166-314 413 0 249 111 421 314 421" id="R"/><g id="e"><use transform="matrix(0.008173828125000001,0,0,0.008173828125000001,0,0)" xlink:href="#R"/><use transform="matrix(0.008173828125000001,0,0,0.008173828125000001,10.249980468750001,0)" xlink:href="#M"/><use transform="matrix(0.008173828125000001,0,0,0.008173828125000001,20.009531250000002,0)" xlink:href="#O"/><use transform="matrix(0.008173828125000001,0,0,0.008173828125000001,25.485996093750003,0)" xlink:href="#L"/><use transform="matrix(0.008173828125000001,0,0,0.008173828125000001,32.049580078125004,0)" xlink:href="#Q"/></g><path fill="#333" d="M166-471v-247l1019-454v289L492-601v13l693 282v287" id="S"/><path fill="#333" d="M128 0v-1118h300V0H128zm150-1264c-91 0-165-68-165-154 0-85 74-154 165-154 90 0 165 69 165 154 0 86-75 154-165 154" id="T"/><path fill="#333" d="M428-647V0H128v-1118h283l4 231c63-156 176-245 348-245 232 0 384 159 384 421V0H847v-659c0-139-76-222-202-222-128 0-217 86-217 234" id="U"/><path fill="#333" d="M628 22C291 22 81-210 81-554c0-346 210-578 547-578 265 0 455 142 497 372l-279 52c-25-116-99-188-215-188-160 0-244 139-244 341 0 200 84 341 244 341 116 0 193-74 217-195l279 51C1085-123 896 22 628 22" id="V"/><path fill="#333" d="M428-1490V0H128v-1490h300" id="W"/><path fill="#333" d="M513 14c-232 0-385-159-385-421v-711h300v659c0 139 76 222 202 222 127 0 217-86 217-234v-647h301V0H864l-4-232C797-74 683 14 513 14" id="X"/><path fill="#333" d="M537 19C279 19 81-185 81-557c0-382 206-575 454-575 190 0 278 113 318 202h10v-560h300V0H868v-179h-15C812-89 719 19 537 19zm92-241c153 0 240-134 240-336 0-203-86-334-240-334-158 0-240 138-240 334 0 197 84 336 240 336" id="Y"/><path fill="#333" d="M633 22C291 22 81-200 81-553c0-345 210-579 537-579 292 0 525 185 525 567v84H378c7 183 109 277 260 277 105 0 184-46 216-132l272 51C1071-99 893 22 633 22zM380-669h474c-15-146-94-237-233-237-143 0-229 99-241 237" id="Z"/><path fill="#333" d="M1224-471L205-19v-287l694-281v-14L205-883v-289l1019 454v247" id="aa"/><g id="f"><use transform="matrix(0.008680555555555556,0,0,0.008680555555555556,0,0)" xlink:href="#S"/><use transform="matrix(0.008680555555555556,0,0,0.008680555555555556,12.065972222222223,0)" xlink:href="#S"/><use transform="matrix(0.008680555555555556,0,0,0.008680555555555556,24.131944444444446,0)" xlink:href="#T"/><use transform="matrix(0.008680555555555556,0,0,0.008680555555555556,28.94965277777778,0)" xlink:href="#U"/><use transform="matrix(0.008680555555555556,0,0,0.008680555555555556,40.017361111111114,0)" xlink:href="#V"/><use transform="matrix(0.008680555555555556,0,0,0.008680555555555556,50.47743055555556,0)" xlink:href="#W"/><use transform="matrix(0.008680555555555556,0,0,0.008680555555555556,55.29513888888889,0)" xlink:href="#X"/><use transform="matrix(0.008680555555555556,0,0,0.008680555555555556,66.36284722222223,0)" xlink:href="#Y"/><use transform="matrix(0.008680555555555556,0,0,0.008680555555555556,77.56944444444446,0)" xlink:href="#Z"/><use transform="matrix(0.008680555555555556,0,0,0.008680555555555556,88.15972222222223,0)" xlink:href="#aa"/><use transform="matrix(0.008680555555555556,0,0,0.008680555555555556,100.22569444444447,0)" xlink:href="#aa"/></g><path d="M653-1490V0H466v-1314h-10L96-1047v-204l324-239h233" id="ab"/><path d="M295 13c-75 0-135-60-135-135s60-135 135-135 135 60 135 135S370 13 295 13" id="ac"/><path d="M441-652l13-317-268 171-72-126 282-146-282-146 72-128 268 171-13-317h144l-12 317 267-171 72 128-282 146 282 146-72 126-267-171 12 317H441" id="ad"/><g id="g"><use transform="matrix(0.008173828125000001,0,0,0.008173828125000001,0,0)" xlink:href="#ab"/><use transform="matrix(0.008173828125000001,0,0,0.008173828125000001,6.808798828125001,0)" xlink:href="#ac"/><use transform="matrix(0.008173828125000001,0,0,0.008173828125000001,11.631357421875002,0)" xlink:href="#ac"/><use transform="matrix(0.008173828125000001,0,0,0.008173828125000001,16.453916015625,0)" xlink:href="#ad"/></g><path d="M52 0l541-1490h220L1361 0h-200l-149-416H398L254 0H52zm404-582h497c-103-290-145-390-251-756-108 377-145 460-246 756" id="ae"/><path d="M611 442c-248 0-391-105-460-228l146-94c47 65 117 165 314 165 178 0 307-82 307-266v-224h-17C863-141 792-18 576-18c-268 0-472-195-472-546 0-346 197-568 476-568 216 0 288 133 326 193h17v-179h175V29c0 289-215 413-487 413zm-5-620c203 0 314-146 314-390 0-237-108-403-314-403-213 0-319 180-319 403 0 230 109 390 319 390" id="af"/><path d="M537 14c-226 0-379-139-379-422v-710h180v695c0 172 97 275 253 275 160 0 281-109 281-300v-670h181V0H879v-209C806-46 684 14 537 14" id="ag"/><path d="M338-670V0H158v-1118h173l1 207c72-158 192-221 342-221 226 0 378 139 378 422V0H872v-695c0-172-96-275-252-275-161 0-282 109-282 300" id="ah"/><g id="h"><use transform="matrix(0.008173828125000001,0,0,0.008173828125000001,0,0)" xlink:href="#ae"/><use transform="matrix(0.008173828125000001,0,0,0.008173828125000001,11.549619140625001,0)" xlink:href="#af"/><use transform="matrix(0.008173828125000001,0,0,0.008173828125000001,21.815947265625002,0)" xlink:href="#af"/><use transform="matrix(0.008173828125000001,0,0,0.008173828125000001,32.082275390625,0)" xlink:href="#Q"/><use transform="matrix(0.008173828125000001,0,0,0.008173828125000001,36.136494140625004,0)" xlink:href="#ag"/><use transform="matrix(0.008173828125000001,0,0,0.008173828125000001,46.035000000000004,0)" xlink:href="#ah"/><use transform="matrix(0.008173828125000001,0,0,0.008173828125000001,55.92533203125001,0)" xlink:href="#af"/><use transform="matrix(0.008173828125000001,0,0,0.008173828125000001,66.19166015625001,0)" xlink:href="#Q"/></g><path d="M538 24C308 24 148-78 108-271l171-41c32 123 123 178 257 178 156 0 256-77 256-169 0-77-54-128-164-154l-186-44c-203-48-300-148-300-305 0-192 176-326 414-326 230 0 351 112 402 269l-163 42c-31-80-94-158-238-158-133 0-233 69-233 162 0 83 57 129 188 160l169 40c203 48 298 149 298 302 0 196-179 339-441 339" id="ai"/><path d="M126 0v-134l627-806v-11H146v-167h839v143L376-178v11h629V0H126" id="aj"/><path d="M613 24c-304 0-509-231-509-576 0-350 205-580 509-580 305 0 511 230 511 580 0 345-206 576-511 576zm0-161c226 0 329-195 329-415 0-222-103-419-329-419-223 0-326 196-326 419 0 220 103 415 326 415" id="ak"/><g id="i"><use transform="matrix(0.008173828125000001,0,0,0.008173828125000001,0,0)" xlink:href="#O"/><use transform="matrix(0.008173828125000001,0,0,0.008173828125000001,5.4764648437500005,0)" xlink:href="#L"/><use transform="matrix(0.008173828125000001,0,0,0.008173828125000001,11.778486328125002,0)" xlink:href="#N"/><use transform="matrix(0.008173828125000001,0,0,0.008173828125000001,21.178388671875005,0)" xlink:href="#ah"/><use transform="matrix(0.008173828125000001,0,0,0.008173828125000001,31.068720703125006,0)" xlink:href="#ai"/><use transform="matrix(0.008173828125000001,0,0,0.008173828125000001,39.90462890625001,0)" xlink:href="#Q"/><use transform="matrix(0.008173828125000001,0,0,0.008173828125000001,43.958847656250015,0)" xlink:href="#aj"/><use transform="matrix(0.008173828125000001,0,0,0.008173828125000001,53.203447265625016,0)" xlink:href="#Q"/><use transform="matrix(0.008173828125000001,0,0,0.008173828125000001,57.25766601562502,0)" xlink:href="#ak"/><use transform="matrix(0.008173828125000001,0,0,0.008173828125000001,67.29512695312502,0)" xlink:href="#ah"/><use transform="matrix(0.008173828125000001,0,0,0.008173828125000001,77.18545898437502,0)" xlink:href="#Q"/></g><path d="M154 0v-137l495-537c165-179 249-281 249-418 0-156-121-253-280-253-170 0-278 110-278 278H158c0-264 200-443 465-443 266 0 455 183 455 416 0 161-73 288-336 568L416-179v12h687V0H154" id="al"/><g id="j"><use transform="matrix(0.008173828125000001,0,0,0.008173828125000001,0,0)" xlink:href="#al"/><use transform="matrix(0.008173828125000001,0,0,0.008173828125000001,10.209111328125001,0)" xlink:href="#ac"/><use transform="matrix(0.008173828125000001,0,0,0.008173828125000001,15.031669921875,0)" xlink:href="#ac"/><use transform="matrix(0.008173828125000001,0,0,0.008173828125000001,19.854228515625,0)" xlink:href="#ad"/></g><g id="k"><use transform="matrix(0.008173828125000001,0,0,0.008173828125000001,0,0)" xlink:href="#ae"/><use transform="matrix(0.008173828125000001,0,0,0.008173828125000001,11.549619140625001,0)" xlink:href="#af"/><use transform="matrix(0.008173828125000001,0,0,0.008173828125000001,21.815947265625002,0)" xlink:href="#af"/><use transform="matrix(0.008173828125000001,0,0,0.008173828125000001,32.082275390625,0)" xlink:href="#Q"/><use transform="matrix(0.008173828125000001,0,0,0.008173828125000001,36.136494140625004,0)" xlink:href="#ag"/><use transform="matrix(0.008173828125000001,0,0,0.008173828125000001,46.035000000000004,0)" xlink:href="#ah"/><use transform="matrix(0.008173828125000001,0,0,0.008173828125000001,55.92533203125001,0)" xlink:href="#af"/><use transform="matrix(0.008173828125000001,0,0,0.008173828125000001,66.19166015625001,0)" xlink:href="#Q"/></g><path d="M338-1490V0H158v-1490h180" id="am"/><path d="M613 24c-304 0-509-231-509-576 0-350 205-580 509-580 216 0 392 114 453 309l-173 49c-33-115-133-197-280-197-223 0-326 196-326 419 0 220 103 415 326 415 150 0 252-85 285-206l172 49C1010-95 832 24 613 24" id="an"/><g id="l"><use transform="matrix(0.008173828125000001,0,0,0.008173828125000001,0,0)" xlink:href="#R"/><use transform="matrix(0.008173828125000001,0,0,0.008173828125000001,10.249980468750001,0)" xlink:href="#am"/><use transform="matrix(0.008173828125000001,0,0,0.008173828125000001,14.304199218750002,0)" xlink:href="#N"/><use transform="matrix(0.008173828125000001,0,0,0.008173828125000001,23.704101562500004,0)" xlink:href="#an"/><use transform="matrix(0.008173828125000001,0,0,0.008173828125000001,33.26748046875001,0)" xlink:href="#M"/></g><g id="m"><use transform="matrix(0.008173828125000001,0,0,0.008173828125000001,0,0)" xlink:href="#ae"/><use transform="matrix(0.008173828125000001,0,0,0.008173828125000001,11.549619140625001,0)" xlink:href="#af"/><use transform="matrix(0.008173828125000001,0,0,0.008173828125000001,21.815947265625002,0)" xlink:href="#af"/><use transform="matrix(0.008173828125000001,0,0,0.008173828125000001,32.082275390625,0)" xlink:href="#Q"/><use transform="matrix(0.008173828125000001,0,0,0.008173828125000001,36.136494140625004,0)" xlink:href="#ag"/><use transform="matrix(0.008173828125000001,0,0,0.008173828125000001,46.035000000000004,0)" xlink:href="#ah"/><use transform="matrix(0.008173828125000001,0,0,0.008173828125000001,55.92533203125001,0)" xlink:href="#af"/><use transform="matrix(0.008173828125000001,0,0,0.008173828125000001,66.19166015625001,0)" xlink:href="#Q"/></g><path d="M338-670V0H158v-1490h180v566c73-149 190-208 336-208 226 0 379 139 379 422V0H872v-695c0-172-96-275-252-275-161 0-282 109-282 300" id="ao"/><g id="n"><use transform="matrix(0.008173828125000001,0,0,0.008173828125000001,0,0)" xlink:href="#N"/><use transform="matrix(0.008173828125000001,0,0,0.008173828125000001,9.399902343750002,0)" xlink:href="#L"/><use transform="matrix(0.008173828125000001,0,0,0.008173828125000001,15.424013671875002,0)" xlink:href="#an"/><use transform="matrix(0.008173828125000001,0,0,0.008173828125000001,24.987392578125004,0)" xlink:href="#ao"/><use transform="matrix(0.008173828125000001,0,0,0.008173828125000001,34.8858984375,0)" xlink:href="#Q"/></g><use transform="matrix(0.008173828125000001,0,0,0.008173828125000001,0,0)" xlink:href="#ab" id="o"/><g id="p"><use transform="matrix(0.008173828125000001,0,0,0.008173828125000001,0,0)" xlink:href="#ai"/><use transform="matrix(0.008173828125000001,0,0,0.008173828125000001,8.835908203125001,0)" xlink:href="#M"/><use transform="matrix(0.008173828125000001,0,0,0.008173828125000001,18.595458984375,0)" xlink:href="#am"/><use transform="matrix(0.008173828125000001,0,0,0.008173828125000001,22.649677734375,0)" xlink:href="#M"/><use transform="matrix(0.008173828125000001,0,0,0.008173828125000001,32.164013671875004,0)" xlink:href="#aj"/><use transform="matrix(0.008173828125000001,0,0,0.008173828125000001,41.408613281250005,0)" xlink:href="#Q"/><use transform="matrix(0.008173828125000001,0,0,0.008173828125000001,45.46283203125,0)" xlink:href="#ak"/><use transform="matrix(0.008173828125000001,0,0,0.008173828125000001,55.500292968749996,0)" xlink:href="#ah"/><use transform="matrix(0.008173828125000001,0,0,0.008173828125000001,65.390625,0)" xlink:href="#N"/></g><g id="q"><use transform="matrix(0.008173828125000001,0,0,0.008173828125000001,0,0)" xlink:href="#Q"/><use transform="matrix(0.008173828125000001,0,0,0.008173828125000001,4.05421875,0)" xlink:href="#ah"/><use transform="matrix(0.008173828125000001,0,0,0.008173828125000001,13.944550781250001,0)" xlink:href="#Q"/><use transform="matrix(0.008173828125000001,0,0,0.008173828125000001,17.99876953125,0)" xlink:href="#aj"/><use transform="matrix(0.008173828125000001,0,0,0.008173828125000001,27.243369140625003,0)" xlink:href="#Q"/><use transform="matrix(0.008173828125000001,0,0,0.008173828125000001,31.297587890625003,0)" xlink:href="#ak"/></g><path d="M678-1118v154H420V0H240v-964H20v-154h220v-149c0-194 155-293 318-293 85 0 141 18 168 30l-50 154c-19-6-47-17-97-17-111 0-159 58-159 166v109h258" id="ap"/><g id="r"><use transform="matrix(0.008173828125000001,0,0,0.008173828125000001,0,0)" xlink:href="#ap"/><use transform="matrix(0.008173828125000001,0,0,0.008173828125000001,6.195761718750001,0)" xlink:href="#Q"/><use transform="matrix(0.008173828125000001,0,0,0.008173828125000001,10.249980468750001,0)" xlink:href="#ah"/><use transform="matrix(0.008173828125000001,0,0,0.008173828125000001,20.1403125,0)" xlink:href="#M"/></g><path fill="#333" d="M42 0l360-574-338-544h324c72 124 151 261 209 394 58-134 140-271 215-394h318L785-570 1146 0H824c-79-136-169-280-234-425C528-278 439-134 360 0H42" id="aq"/><path fill="#333" d="M683-1118v229H474v562c0 71 29 104 102 104 23 0 73-7 95-13l43 225C647 9 580 16 520 16 296 16 174-96 174-301v-588H20v-229h154v-266h300v266h209" id="ar"/><g id="s"><use transform="matrix(0.008680555555555556,0,0,0.008680555555555556,0,0)" xlink:href="#S"/><use transform="matrix(0.008680555555555556,0,0,0.008680555555555556,12.065972222222223,0)" xlink:href="#S"/><use transform="matrix(0.008680555555555556,0,0,0.008680555555555556,24.131944444444446,0)" xlink:href="#Z"/><use transform="matrix(0.008680555555555556,0,0,0.008680555555555556,34.36631944444444,0)" xlink:href="#aq"/><use transform="matrix(0.008680555555555556,0,0,0.008680555555555556,44.93055555555556,0)" xlink:href="#ar"/><use transform="matrix(0.008680555555555556,0,0,0.008680555555555556,51.26736111111111,0)" xlink:href="#Z"/><use transform="matrix(0.008680555555555556,0,0,0.008680555555555556,61.857638888888886,0)" xlink:href="#U"/><use transform="matrix(0.008680555555555556,0,0,0.008680555555555556,72.92534722222221,0)" xlink:href="#Y"/><use transform="matrix(0.008680555555555556,0,0,0.008680555555555556,84.13194444444444,0)" xlink:href="#aa"/><use transform="matrix(0.008680555555555556,0,0,0.008680555555555556,96.19791666666667,0)" xlink:href="#aa"/></g><path d="M158 0v-1118h175l1 205c55-151 181-225 313-225 147 0 245 90 285 228 53-141 190-228 352-228 194 0 352 125 352 384V0h-181v-749c0-161-105-225-225-225-151 0-243 103-243 244V0H807v-767c0-124-93-207-219-207-131 0-250 92-250 270V0H158" id="as"/><g id="t"><use transform="matrix(0.008173828125000001,0,0,0.008173828125000001,0,0)" xlink:href="#Q"/><use transform="matrix(0.008173828125000001,0,0,0.008173828125000001,4.05421875,0)" xlink:href="#as"/><use transform="matrix(0.008173828125000001,0,0,0.008173828125000001,18.718066406250003,0)" xlink:href="#R"/><use transform="matrix(0.008173828125000001,0,0,0.008173828125000001,28.968046875000006,0)" xlink:href="#ak"/><use transform="matrix(0.008173828125000001,0,0,0.008173828125000001,39.00550781250001,0)" xlink:href="#ai"/><use transform="matrix(0.008173828125000001,0,0,0.008173828125000001,47.84141601562501,0)" xlink:href="#O"/><use transform="matrix(0.008173828125000001,0,0,0.008173828125000001,53.399619140625006,0)" xlink:href="#N"/></g><g id="u"><use transform="matrix(0.008173828125000001,0,0,0.008173828125000001,0,0)" xlink:href="#an"/><use transform="matrix(0.008173828125000001,0,0,0.008173828125000001,9.563378906250001,0)" xlink:href="#ak"/><use transform="matrix(0.008173828125000001,0,0,0.008173828125000001,19.600839843750002,0)" xlink:href="#as"/><use transform="matrix(0.008173828125000001,0,0,0.008173828125000001,34.26468750000001,0)" xlink:href="#M"/></g><g id="v"><use transform="matrix(0.008173828125000001,0,0,0.008173828125000001,0,0)" xlink:href="#ag"/><use transform="matrix(0.008173828125000001,0,0,0.008173828125000001,9.898505859375001,0)" xlink:href="#ai"/><use transform="matrix(0.008173828125000001,0,0,0.008173828125000001,18.7344140625,0)" xlink:href="#M"/><use transform="matrix(0.008173828125000001,0,0,0.008173828125000001,28.49396484375,0)" xlink:href="#L"/></g><use transform="matrix(0.008173828125000001,0,0,0.008173828125000001,0,0)" xlink:href="#ak" id="w"/><g id="x"><use transform="matrix(0.008173828125000001,0,0,0.008173828125000001,0,0)" xlink:href="#N"/><use transform="matrix(0.008173828125000001,0,0,0.008173828125000001,9.399902343750002,0)" xlink:href="#P"/><use transform="matrix(0.008173828125000001,0,0,0.008173828125000001,19.649882812500003,0)" xlink:href="#as"/><use transform="matrix(0.008173828125000001,0,0,0.008173828125000001,34.31373046875001,0)" xlink:href="#Q"/><use transform="matrix(0.008173828125000001,0,0,0.008173828125000001,38.36794921875001,0)" xlink:href="#ah"/></g><g id="y"><use transform="matrix(0.008173828125000001,0,0,0.008173828125000001,0,0)" xlink:href="#K"/><use transform="matrix(0.008173828125000001,0,0,0.008173828125000001,12.228046875000002,0)" xlink:href="#ak"/><use transform="matrix(0.008173828125000001,0,0,0.008173828125000001,22.265507812500008,0)" xlink:href="#ah"/><use transform="matrix(0.008173828125000001,0,0,0.008173828125000001,32.15583984375,0)" xlink:href="#ai"/><use transform="matrix(0.008173828125000001,0,0,0.008173828125000001,40.991748046875,0)" xlink:href="#ag"/><use transform="matrix(0.008173828125000001,0,0,0.008173828125000001,50.89025390625,0)" xlink:href="#am"/><use transform="matrix(0.008173828125000001,0,0,0.008173828125000001,55.189687500000005,0)" xlink:href="#O"/><use transform="matrix(0.008173828125000001,0,0,0.008173828125000001,60.747890625000004,0)" xlink:href="#N"/></g><g id="z"><use transform="matrix(0.008173828125000001,0,0,0.008173828125000001,0,0)" xlink:href="#an"/><use transform="matrix(0.008173828125000001,0,0,0.008173828125000001,9.726855468750001,0)" xlink:href="#N"/><use transform="matrix(0.008173828125000001,0,0,0.008173828125000001,19.126757812500003,0)" xlink:href="#O"/><use transform="matrix(0.008173828125000001,0,0,0.008173828125000001,24.684960937500005,0)" xlink:href="#N"/><use transform="matrix(0.008173828125000001,0,0,0.008173828125000001,34.08486328125001,0)" xlink:href="#am"/><use transform="matrix(0.008173828125000001,0,0,0.008173828125000001,38.13908203125001,0)" xlink:href="#ak"/><use transform="matrix(0.008173828125000001,0,0,0.008173828125000001,48.17654296875001,0)" xlink:href="#af"/><use transform="matrix(0.008173828125000001,0,0,0.008173828125000001,58.442871093750014,0)" xlink:href="#ak"/></g><g id="A"><use transform="matrix(0.008173828125000001,0,0,0.008173828125000001,0,0)" xlink:href="#an"/><use transform="matrix(0.008173828125000001,0,0,0.008173828125000001,9.563378906250001,0)" xlink:href="#L"/><use transform="matrix(0.008173828125000001,0,0,0.008173828125000001,15.587490234375002,0)" xlink:href="#M"/><use transform="matrix(0.008173828125000001,0,0,0.008173828125000001,25.510517578125004,0)" xlink:href="#N"/><use transform="matrix(0.008173828125000001,0,0,0.008173828125000001,34.910419921875004,0)" xlink:href="#aj"/><use transform="matrix(0.008173828125000001,0,0,0.008173828125000001,44.155019531250005,0)" xlink:href="#Q"/><use transform="matrix(0.008173828125000001,0,0,0.008173828125000001,48.20923828125001,0)" xlink:href="#ak"/><use transform="matrix(0.008173828125000001,0,0,0.008173828125000001,58.24669921875001,0)" xlink:href="#ah"/><use transform="matrix(0.008173828125000001,0,0,0.008173828125000001,68.13703125,0)" xlink:href="#Q"/></g><path d="M789 20c-398 0-667-293-667-764 0-473 273-766 655-766 315 0 558 198 612 487h-196c-61-191-204-311-415-311-262 0-471 207-471 590 0 380 208 588 482 588 249 0 420-165 425-427H828v-166h572v163c0 370-256 606-611 606" id="at"/><g id="B"><use transform="matrix(0.008173828125000001,0,0,0.008173828125000001,0,0)" xlink:href="#at"/><use transform="matrix(0.008173828125000001,0,0,0.008173828125000001,12.489609375000002,0)" xlink:href="#M"/><use transform="matrix(0.008173828125000001,0,0,0.008173828125000001,22.249160156250003,0)" xlink:href="#ai"/><use transform="matrix(0.008173828125000001,0,0,0.008173828125000001,31.085068359375004,0)" xlink:href="#O"/><use transform="matrix(0.008173828125000001,0,0,0.008173828125000001,36.561533203125,0)" xlink:href="#Q"/><use transform="matrix(0.008173828125000001,0,0,0.008173828125000001,40.615751953125,0)" xlink:href="#ai"/><use transform="matrix(0.008173828125000001,0,0,0.008173828125000001,49.45166015625,0)" xlink:href="#an"/><use transform="matrix(0.008173828125000001,0,0,0.008173828125000001,59.0150390625,0)" xlink:href="#Q"/></g><g id="C"><use transform="matrix(0.008173828125000001,0,0,0.008173828125000001,0,0)" xlink:href="#an"/><use transform="matrix(0.008173828125000001,0,0,0.008173828125000001,9.563378906250001,0)" xlink:href="#ak"/><use transform="matrix(0.008173828125000001,0,0,0.008173828125000001,19.600839843750002,0)" xlink:href="#as"/><use transform="matrix(0.008173828125000001,0,0,0.008173828125000001,34.26468750000001,0)" xlink:href="#R"/><use transform="matrix(0.008173828125000001,0,0,0.008173828125000001,44.51466796875001,0)" xlink:href="#ag"/><use transform="matrix(0.008173828125000001,0,0,0.008173828125000001,54.41317382812501,0)" xlink:href="#O"/><use transform="matrix(0.008173828125000001,0,0,0.008173828125000001,59.97137695312501,0)" xlink:href="#N"/><use transform="matrix(0.008173828125000001,0,0,0.008173828125000001,69.37127929687502,0)" xlink:href="#aj"/><use transform="matrix(0.008173828125000001,0,0,0.008173828125000001,78.61587890625002,0)" xlink:href="#Q"/><use transform="matrix(0.008173828125000001,0,0,0.008173828125000001,82.67009765625002,0)" xlink:href="#ak"/><use transform="matrix(0.008173828125000001,0,0,0.008173828125000001,92.70755859375002,0)" xlink:href="#ah"/><use transform="matrix(0.008173828125000001,0,0,0.008173828125000001,102.597890625,0)" xlink:href="#Q"/></g><g id="D"><use transform="matrix(0.010850694444444444,0,0,0.010850694444444444,0,0)" xlink:href="#ae"/><use transform="matrix(0.010850694444444444,0,0,0.010850694444444444,15.33203125,0)" xlink:href="#P"/><use transform="matrix(0.010850694444444444,0,0,0.010850694444444444,28.938802083333332,0)" xlink:href="#as"/><use transform="matrix(0.010850694444444444,0,0,0.010850694444444444,48.404947916666664,0)" xlink:href="#Q"/><use transform="matrix(0.010850694444444444,0,0,0.010850694444444444,53.78689236111111,0)" xlink:href="#ah"/></g><path d="M180 0v-1490h510c348 0 508 209 508 474 0 266-160 477-507 477H370V0H180zm190-706h312c236 0 327-133 327-310 0-176-91-307-329-307H370v617" id="au"/><g id="E"><use transform="matrix(0.010850694444444444,0,0,0.010850694444444444,0,0)" xlink:href="#au"/><use transform="matrix(0.010850694444444444,0,0,0.010850694444444444,14.073350694444445,0)" xlink:href="#M"/><use transform="matrix(0.010850694444444444,0,0,0.010850694444444444,27.029079861111104,0)" xlink:href="#L"/><use transform="matrix(0.010850694444444444,0,0,0.010850694444444444,35.39496527777777,0)" xlink:href="#ai"/><use transform="matrix(0.010850694444444444,0,0,0.010850694444444444,47.12456597222221,0)" xlink:href="#ak"/><use transform="matrix(0.010850694444444444,0,0,0.010850694444444444,60.449218749999986,0)" xlink:href="#ah"/><use transform="matrix(0.010850694444444444,0,0,0.010850694444444444,73.57855902777777,0)" xlink:href="#N"/></g></defs></g></svg>