<svg xmlns="http://www.w3.org/2000/svg" xmlns:xlink="http://www.w3.org/1999/xlink" xmlns:lucid="lucid" width="1207" height="1131"><g transform="translate(-2541 -459)" lucid:page-tab-id="0_0"><path d="M3058.56 508a8 8 0 0 1 8-8h632.22a8 8 0 0 1 8 8v980.6a8 8 0 0 1-8 8h-632.22a8 8 0 0 1-8-8z" stroke="#000" stroke-opacity="0" stroke-width="2" fill="#edf5ff"/><use xlink:href="#a" transform="matrix(1,0,0,1,3066.5583973254006,508) translate(258.35784505208335 28.02916666666667)"/><path d="M3280 647.88c0 33.14-35.82 60-80 60s-80-26.86-80-60 35.82-60 80-60 80 26.86 80 60z" stroke="#000" stroke-width="2" fill="#fff"/><use xlink:href="#b" transform="matrix(1,0,0,1,3120,587.8785874152428) translate(29.919868164062493 57.466875)"/><use xlink:href="#c" transform="matrix(1,0,0,1,3120,587.8785874152428) translate(104.7757861328125 57.466875)"/><use xlink:href="#d" transform="matrix(1,0,0,1,3120,587.8785874152428) translate(40.112631835937485 77.72162109375)"/><path d="M3297.45 648.35h-1.96v-.95h1.95zm7.85 0h-3.92v-.95h3.92zm7.85 0h-3.93v-.95h3.93zm7.85 0h-3.93v-.95h3.93zm5.53 0h-1.6v-.95h1.6zm120.03 0h-3.92v-.95h3.92zm7.85 0h-3.9v-.95h3.9zm7.86 0h-3.92v-.95h3.92zm7.85 0h-3.92v-.95h3.93zm7.86 0h-3.93v-.95h3.93zm5.88 0h-1.96v-.95h1.96z" stroke="#3a414a" stroke-width=".05" fill="#3a414a"/><path d="M3295 655.38l-13-7.5 13-7.5z" fill="#3a414a"/><path d="M3295.47 656.2l-14.42-8.32 14.4-8.32zm-12.52-8.32l11.57 6.68V641.2z" stroke="#3a414a" stroke-width=".05" fill="#3a414a"/><path d="M3484.34 647.87v.4l-.5.08v-.95h.52z" fill="#3a414a"/><path stroke="#3a414a" stroke-width=".05" fill="#3a414a"/><use xlink:href="#e" transform="matrix(1,0,0,1,3326.525208178218,637.1233790819094) translate(0 17.22222222222222)"/><path d="M3645.34 647.88c0 33.14-35.82 60-80 60s-80-26.86-80-60 35.82-60 80-60 80 26.86 80 60z" stroke="#000" stroke-width="2" fill="#fff"/><use xlink:href="#f" transform="matrix(1,0,0,1,3485.342083023103,587.8785874152428) translate(38.167260742187494 64.966875)"/><path d="M3645.34 834.1c0 33.13-35.82 60-80 60s-80-26.87-80-60c0-33.14 35.82-60 80-60s80 26.86 80 60z" stroke="#000" stroke-width="2" fill="#fff"/><use xlink:href="#g" transform="matrix(1,0,0,1,3485.342083023103,774.0982837999677) translate(58.663134765624996 57.466875)"/><use xlink:href="#h" transform="matrix(1,0,0,1,3485.342083023103,774.0982837999677) translate(23.826279296874986 77.72162109375)"/><path d="M3280 834.1c0 33.13-35.82 60-80 60s-80-26.87-80-60c0-33.14 35.82-60 80-60s80 26.86 80 60z" stroke="#000" stroke-width="2" fill="#fff"/><use xlink:href="#i" transform="matrix(1,0,0,1,3120,774.0982837999677) translate(44.931103515625 46.216875)"/><use xlink:href="#j" transform="matrix(1,0,0,1,3120,774.0982837999677) translate(45.76483398437499 66.47162109375)"/><use xlink:href="#k" transform="matrix(1,0,0,1,3120,774.0982837999677) translate(27.21024414062499 86.7263671875)"/><path d="M3297.45 834.57h-1.96v-.95h1.95zm7.85 0h-3.92v-.95h3.92zm7.85 0h-3.93v-.95h3.93zm7.85 0h-3.93v-.95h3.93zm5.53 0h-1.6v-.95h1.6zm120.03 0h-3.92v-.95h3.92zm7.85 0h-3.9v-.95h3.9zm7.86 0h-3.92v-.95h3.92zm7.85 0h-3.92v-.95h3.93zm7.86 0h-3.93v-.95h3.93zm5.88 0h-1.96v-.95h1.96z" stroke="#3a414a" stroke-width=".05" fill="#3a414a"/><path d="M3295 841.6l-13-7.5 13-7.5z" fill="#3a414a"/><path d="M3295.47 842.42l-14.42-8.32 14.4-8.32zm-12.52-8.32l11.57 6.68v-13.36z" stroke="#3a414a" stroke-width=".05" fill="#3a414a"/><path d="M3484.34 834.1v.4l-.5.07v-.95h.52z" fill="#3a414a"/><path stroke="#3a414a" stroke-width=".05" fill="#3a414a"/><use xlink:href="#e" transform="matrix(1,0,0,1,3326.525208178218,823.3430754666343) translate(0 17.22222222222222)"/><path d="M3280 1020.32c0 33.13-35.82 60-80 60s-80-26.87-80-60c0-33.14 35.82-60 80-60s80 26.86 80 60z" stroke="#000" stroke-width="2" fill="#fff"/><use xlink:href="#l" transform="matrix(1,0,0,1,3120,960.3179801846927) translate(53.5667529296875 57.466875)"/><use xlink:href="#m" transform="matrix(1,0,0,1,3120,960.3179801846927) translate(36.53249511718749 77.72162109375)"/><path d="M3283.53 1020.8h-2.03v-.96h2.03zm8.1 0h-4.05v-.96h4.05zm8.1 0h-4.05v-.96h4.05zm8.1 0h-4.05v-.96h4.05zm8.1 0h-4.05v-.96h4.05zm8.1 0H3320v-.96h4.04zm8.1 0h-4.04v-.96h4.04zm8.1 0h-4.04v-.96h4.04zm8.1 0h-4.04v-.96h4.04zm8.12 0h-4.05v-.96h4.05zm8.1 0h-4.05v-.96h4.05zm121.54 0h-4.07v-.96h4.06zm8.1 0h-4.06v-.96h4.05zm8.1 0h-4.06v-.96h4.05zm8.1 0h-4.06v-.96h4.05zm8.1 0h-4.05v-.96h4.05zm8.1 0h-4.05v-.96h4.05zm8.55-.52l-.47.2-1 .24-1 .07h-2.03v-.96h2l.9-.07.83-.2.4-.17zm4-5.94l-.08 1-.24.98-.2.47-.87-.38.17-.4.2-.84.07-.88v-1.9h.95zm0-5.82h-.95v-3.86h.95zm0-7.72h-.95v-3.86h.95zm0-7.72h-.95v-3.86h.95zm0-7.73h-.95v-3.86h.95zm0-7.72h-.95v-3.86h.95zm0-7.72h-.95v-3.85h.95zm0-7.72h-.95v-3.86h.95zm0-7.72h-.95v-3.86h.95zm0-7.72h-.95v-3.86h.95zm0-7.73h-.95v-3.85h.95zm0-7.7h-.95v-3.87h.95zm0-7.73h-.95v-3.86h.95zm0-7.73h-.95V912h.95zm0-7.72h-.95v-1.93h.95z" stroke="#3a414a" stroke-width=".05" fill="#3a414a"/><path d="M3281.5 1020.8h-.5V1019.9l.5-.06z" fill="#3a414a"/><path stroke="#3a414a" stroke-width=".05" fill="#3a414a"/><path d="M3546.18 905.7h-15l7.5-13z" fill="#3a414a"/><path d="M3547 906.17h-16.65l8.33-14.42zm-15-.95h13.35l-6.67-11.57z" stroke="#3a414a" stroke-width=".05" fill="#3a414a"/><use xlink:href="#e" transform="matrix(1,0,0,1,3367.919859104311,1009.5627718513593) translate(0 17.22222222222222)"/><path d="M3280 1206.54c0 33.13-35.82 60-80 60s-80-26.87-80-60c0-33.14 35.82-60 80-60s80 26.86 80 60z" stroke="#000" stroke-width="2" fill="#fff"/><use xlink:href="#n" transform="matrix(1,0,0,1,3120,1146.5376765694177) translate(51.91563964843749 57.466875)"/><use xlink:href="#o" transform="matrix(1,0,0,1,3120,1146.5376765694177) translate(23.826279296874986 77.72162109375)"/><path d="M3280 1392.76c0 33.13-35.82 60-80 60s-80-26.87-80-60c0-33.14 35.82-60 80-60s80 26.86 80 60z" stroke="#000" stroke-width="2" fill="#fff"/><use xlink:href="#p" transform="matrix(1,0,0,1,3120,1332.7573729541425) translate(44.25267578124999 57.466875)"/><use xlink:href="#q" transform="matrix(1,0,0,1,3120,1332.7573729541425) translate(43.643725585937496 77.72162109375)"/><use xlink:href="#r" transform="matrix(1,0,0,1,3120,1332.7573729541425) translate(85.5100732421875 77.72162109375)"/><path d="M3283.5 1207h-2v-.94h2zm8.02 0h-4v-.94h4zm8 0h-4v-.94h4zm8.02 0h-4v-.94h4zm8.02 0h-4v-.94h4zm8 0h-4v-.94h4zm8.02 0h-4v-.94h4zm8.02 0h-4v-.94h4zm8 0h-4v-.94h4zm8.02 0h-4v-.94h4zm8.02 0h-4v-.94h4zm8 0h-4v-.94h4zm8.02 0h-4v-.94h4zm8.02 0h-4v-.94h4zm120.2 0h-4v-.94h4zm8 0h-4v-.94h4zm8.03 0h-4v-.94h4zm8.02 0h-4v-.94h4zm8 0h-4v-.94h4zm8.03 0h-4v-.94h4zm8 0h-4v-.94h4zm8.02 0h-4v-.94h4zm8.02 0h-4.02v-.94h4zm8 0h-4v-.94h4zm8.48-.5l-.47.2-.98.23-1 .08h-2v-.94h1.97l.87-.07.85-.2.4-.17zm4-5.94l-.07 1-.23.98-.2.47-.87-.36.16-.4.2-.84.07-.88v-1.97h.95zm0-6h-.95v-3.97h.95zm0-7.94h-.95v-3.98h.95zm0-7.96h-.95v-3.98h.95zm0-7.95h-.95v-3.97h.95zm0-7.95h-.95v-3.98h.95zm0-7.95h-.95v-3.98h.95zm0-7.96h-.95v-3.98h.95zm0-7.95h-.95v-4h.95zm0-7.97h-.95v-3.98h.95zm0-7.95h-.95V1119h.95zm0-7.96h-.95v-3.98h.95zm0-7.95h-.95v-3.98h.95zm0-7.96h-.95v-3.97h.95zm0-7.94h-.95v-3.98h.95zm0-7.96h-.95v-3.98h.95zm0-7.95h-.95v-3.98h.95zm0-7.96h-.95v-4h.95zm0-7.96h-.95v-3.98h.95zm0-7.96h-.95v-3.98h.95zm0-7.95h-.95v-3.98h.95zm0-7.96h-.95v-3.98h.95zm0-7.95h-.95v-3.98h.95zm0-7.96h-.95v-3.98h.95zm0-7.95h-.95v-3.97h.95zm0-7.95h-.95v-3.98h.95zm0-7.95h-.95v-3.98h.95zm0-7.96h-.95v-3.98h.95zm0-7.95h-.95v-4h.95zm0-7.97h-.95v-3.98h.95zm0-7.95h-.95v-3.98h.95zm0-7.96h-.95v-3.97h.95zm0-7.95h-.95V944h.95zm0-7.96h-.95v-3.97h.95zm0-7.94h-.95v-3.98h.95zm0-7.96h-.95v-3.98h.95zm0-7.95h-.95v-3.98h.95zm0-7.96h-.95v-2h.95z" stroke="#3a414a" stroke-width=".05" fill="#3a414a"/><path d="M3281.5 1207h-.5V1206.16l.5-.1z" fill="#3a414a"/><path stroke="#3a414a" stroke-width=".05" fill="#3a414a"/><path d="M3599.5 905.7h-15l7.5-13z" fill="#3a414a"/><path d="M3600.33 906.18h-16.64l8.3-14.42zm-15-.95h13.36l-6.7-11.57z" stroke="#3a414a" stroke-width=".05" fill="#3a414a"/><use xlink:href="#e" transform="matrix(1,0,0,1,3390.297226655338,1195.7824682360845) translate(0 17.22222222222222)"/><path d="M3283.48 1393.23h-1.98v-.95h1.98zm7.93 0h-3.95v-.95h3.96zm7.94 0h-3.96v-.95h3.96zm7.93 0h-3.96v-.95h3.97zm7.93 0h-3.96v-.95h3.96zm7.93 0h-3.96v-.95h3.96zm7.93 0h-3.96v-.95h3.96zm7.93 0h-3.97v-.95h3.96zm7.92 0h-3.96v-.95h3.96zm7.93 0h-3.96v-.95h3.95zm7.93 0h-3.96v-.95h3.96zm7.93 0h-3.95v-.95h3.96zm7.94 0h-3.96v-.95h3.96zm7.93 0h-3.96v-.95h3.97zm5.57 0h-1.6v-.95h1.6zm121.3 0h-3.96v-.95h3.97zm7.94 0h-3.97v-.95h3.98zm7.93 0h-3.96v-.95h3.97zm7.94 0h-3.97v-.95h3.97zm7.93 0h-3.97v-.95h3.97zm7.93 0h-3.97v-.95h3.97zm7.93 0h-3.97v-.95h3.97zm7.93 0H3565v-.95h3.96zm7.93 0h-3.98v-.95h3.97zm7.92 0h-3.97v-.95h3.97zm7.93 0h-3.97v-.95h3.97zm7.93 0h-3.97v-.95h3.98zm7.93 0h-3.96v-.95h3.97zm7.94 0h-3.97v-.95h3.97zm7.93 0h-3.97v-.95h3.97zm7.93 0h-3.97v-.95h3.97zm7.93 0h-3.97v-.95h3.97zm7.93 0h-3.97v-.95h3.96zm7.93 0h-3.98v-.95h3.97zm7.9 0h-3.95v-.95h3.96zm8.43-.5l-.47.2-.98.22-1 .08h-2v-.95h1.96l.9-.07.83-.2.4-.15zm-167 .5h-1.1v-.95h1.1zm171-6.45l-.07 1-.24.98-.2.47-.87-.37.17-.4.2-.84.07-.88v-1.97h.94zm0-6h-.94v-3.98h.94zm0-7.96h-.94v-4h.94zm0-7.97h-.94v-3.98h.94zm0-7.96l-.94-.02v-3.98h.94zm0-7.98h-.94v-4h.94zm0-7.97h-.94v-3.98h.94zm0-7.96h-.94v-4h.94zm0-7.98h-.94v-3.98h.94zm0-7.97h-.94v-3.98h.94zm0-7.96h-.94v-4h.94zm0-7.98h-.94v-3.98h.94zm0-7.96h-.94v-4h.94zm0-7.97h-.94v-4h.94zm0-7.98h-.94v-3.98h.94zm0-7.96h-.94v-3.98h.94zm0-7.97h-.94v-4h.94zm0-7.97h-.94v-4h.94zm0-7.97h-.94v-3.98h.94zm0-7.97h-.94v-4h.94zm0-7.97h-.94v-4h.94zm0-7.97h-.94v-3.98h.94zm0-7.97h-.94v-4h.94zm0-7.97h-.94v-3.98h.94zm0-7.97h-.94v-3.98h.94zm0-7.96h-.94v-4h.94zm0-7.97h-.94v-3.98h.94zm0-7.97h-.94v-3.98h.94zm0-7.96h-.94v-3.98h.94zm0-7.97h-.94v-3.98h.94zm0-7.96h-.94v-4h.94zm0-7.97h-.94v-3.98h.94zm0-7.96h-.94v-4h.94zm0-7.97h-.94v-3.98l.94-.02zm0-7.97h-.94v-3.98h.94zm0-7.96h-.94v-4h.94zm0-7.97h-.94V1098h.94zm0-7.97h-.94v-3.98h.94zm0-7.96h-.94v-3.98h.94zm0-7.97h-.94v-3.98h.94zm0-7.96h-.94v-3.98h.94zm0-7.96h-.94v-3.98h.94zm0-7.97h-.94v-3.98h.94zm0-7.96h-.94v-3.98h.94zm0-7.96h-.94v-3.98h.94zm0-7.96h-.94v-4h.94zm0-7.97h-.94v-3.97h.94zm0-7.96h-.94v-3.98h.94zm0-7.96h-.94v-4h.94zm0-7.97h-.94v-3.97h.94zm0-7.95h-.94v-4h.94zm0-7.97h-.94v-3.98h.94zm0-7.97h-.94v-3.97h.94zm0-7.95h-.94v-4h.94zm0-7.97h-.94v-3.98h.94zm0-7.97h-.94v-3.97h.94zm0-7.95h-.94v-3.98h.94zm0-7.97h-.94v-3.98h.94zm0-7.96h-.94v-4h.94zm0-7.97h-.94v-3.98h.94zm0-7.97h-.94v-3.98h.94zm0-7.96h-.94v-4h.94zm0-7.97h-.94v-3.98h.94zm0-7.96h-.94v-4h.94zm0-7.98h-.94v-3.98h.94zm0-7.97h-.94v-3.98h.94zm0-7.96h-.94v-4h.94zm0-7.98h-.94v-3.98h.94zm0-7.96h-.94v-4h.94zm0-7.97h-.94v-4h.94zm0-7.98h-.94v-3.98h.94zm0-7.96h-.94v-4h.94zm0-7.97h-.94v-4h.94zm0-7.97h-.94v-4h.94zm0-7.97h-.94v-3.98h.94zm0-7.97h-.94v-4h.94zm0-7.97h-.94v-4h.94zm0-7.97h-.94v-3.98h.94zm0-7.97h-.94v-4h.94zm0-7.97h-.94v-3.98h.94zm0-7.97h-.94v-3.98h.94zm0-7.96h-.94v-4h.94zm0-7.97h-.94v-3.98h.94zm0-7.96h-.94v-4h.94zm0-7.97h-.94v-3.98h.94zm0-7.97h-.94v-3.98h.94zm0-7.96h-.94v-4h.94zm0-7.97h-.94v-3.98h.94zm0-7.97h-.94v-3.98h.94zm0-7.96h-.94v-4h.94zm0-7.97h-.94v-3.98h.94zm0-7.96h-.94v-4h.94zm-.3-11.96l.23 1 .08.98v2h-.95v-1.96l-.08-.88-.2-.85-.17-.4.88-.36zm-5.15-4.4l.98.24.47.2-.36.87-.4-.17-.84-.2-.9-.08h-2.28v-.95h2.33zm-7.94.87h-2.3v-.95h2.3z" stroke="#3a414a" stroke-width=".05" fill="#3a414a"/><path d="M3281.5 1393.23h-.5V1392.37l.5-.1z" fill="#3a414a"/><path stroke="#3a414a" stroke-width=".05" fill="#3a414a"/><path d="M3660.33 655.38l-13-7.5 13-7.5z" fill="#3a414a"/><path d="M3660.8 656.2l-14.4-8.32 14.4-8.32zm-12.5-8.32l11.56 6.68V641.2z" stroke="#3a414a" stroke-width=".05" fill="#3a414a"/><use xlink:href="#e" transform="matrix(1,0,0,1,3392.143772567654,1382.0021646208093) translate(0 17.22222222222222)"/><path d="M3565.82 772.6h-.95v-1.97h.95zm0-5.92h-.95v-3.94h.95zm0-7.9h-.95v-3.93h.95zm0-31.54h-.95v-1.98h.95z" stroke="#3a414a" stroke-width=".05" fill="#3a414a"/><path d="M3565.82 773.1h-.96v-.5h.96z" fill="#3a414a"/><path stroke="#3a414a" stroke-width=".05" fill="#3a414a"/><path d="M3569.98 724.76h-9.27l4.64-14.26z" fill="#3a414a"/><path d="M3570.63 725.24h-10.58l5.3-16.28zm-9.27-.95h7.96l-3.98-12.27z" stroke="#3a414a" stroke-width=".05" fill="#3a414a"/><use xlink:href="#e" transform="matrix(1,0,0,1,3509.1962496897695,730.2332272742719) translate(0 17.22222222222222)"/><path d="M3058.56 508a8 8 0 0 1 8-8h632.22a8 8 0 0 1 8 8v980.6a8 8 0 0 1-8 8h-632.22a8 8 0 0 1-8-8z" stroke="#000" stroke-opacity="0" stroke-width="2" fill="#edf5ff"/><use xlink:href="#a" transform="matrix(1,0,0,1,3066.5583973254006,508) translate(258.35784505208335 28.02916666666667)"/><path d="M3280 647.88c0 33.14-35.82 60-80 60s-80-26.86-80-60 35.82-60 80-60 80 26.86 80 60z" stroke="#000" stroke-width="2" fill="#fff"/><use xlink:href="#b" transform="matrix(1,0,0,1,3120,587.8785874152428) translate(29.919868164062493 57.466875)"/><use xlink:href="#c" transform="matrix(1,0,0,1,3120,587.8785874152428) translate(104.7757861328125 57.466875)"/><use xlink:href="#d" transform="matrix(1,0,0,1,3120,587.8785874152428) translate(40.112631835937485 77.72162109375)"/><path d="M3297.45 648.35h-1.96v-.95h1.95zm7.85 0h-3.92v-.95h3.92zm7.85 0h-3.93v-.95h3.93zm7.85 0h-3.93v-.95h3.93zm5.53 0h-1.6v-.95h1.6zm120.03 0h-3.92v-.95h3.92zm7.85 0h-3.9v-.95h3.9zm7.86 0h-3.92v-.95h3.92zm7.85 0h-3.92v-.95h3.93zm7.86 0h-3.93v-.95h3.93zm5.88 0h-1.96v-.95h1.96z" stroke="#3a414a" stroke-width=".05" fill="#3a414a"/><path d="M3295 655.38l-13-7.5 13-7.5z" fill="#3a414a"/><path d="M3295.47 656.2l-14.42-8.32 14.4-8.32zm-12.52-8.32l11.57 6.68V641.2z" stroke="#3a414a" stroke-width=".05" fill="#3a414a"/><path d="M3484.34 647.87v.4l-.5.08v-.95h.52z" fill="#3a414a"/><path stroke="#3a414a" stroke-width=".05" fill="#3a414a"/><use xlink:href="#e" transform="matrix(1,0,0,1,3326.525208178218,637.1233790819094) translate(0 17.22222222222222)"/><path d="M3645.34 647.88c0 33.14-35.82 60-80 60s-80-26.86-80-60 35.82-60 80-60 80 26.86 80 60z" stroke="#000" stroke-width="2" fill="#fff"/><use xlink:href="#f" transform="matrix(1,0,0,1,3485.342083023103,587.8785874152428) translate(38.167260742187494 64.966875)"/><path d="M3645.34 834.1c0 33.13-35.82 60-80 60s-80-26.87-80-60c0-33.14 35.82-60 80-60s80 26.86 80 60z" stroke="#000" stroke-width="2" fill="#fff"/><use xlink:href="#g" transform="matrix(1,0,0,1,3485.342083023103,774.0982837999677) translate(58.663134765624996 57.466875)"/><use xlink:href="#h" transform="matrix(1,0,0,1,3485.342083023103,774.0982837999677) translate(23.826279296874986 77.72162109375)"/><path d="M3280 834.1c0 33.13-35.82 60-80 60s-80-26.87-80-60c0-33.14 35.82-60 80-60s80 26.86 80 60z" stroke="#000" stroke-width="2" fill="#fff"/><use xlink:href="#i" transform="matrix(1,0,0,1,3120,774.0982837999677) translate(44.931103515625 46.216875)"/><use xlink:href="#j" transform="matrix(1,0,0,1,3120,774.0982837999677) translate(45.76483398437499 66.47162109375)"/><use xlink:href="#k" transform="matrix(1,0,0,1,3120,774.0982837999677) translate(27.21024414062499 86.7263671875)"/><path d="M3297.45 834.57h-1.96v-.95h1.95zm7.85 0h-3.92v-.95h3.92zm7.85 0h-3.93v-.95h3.93zm7.85 0h-3.93v-.95h3.93zm5.53 0h-1.6v-.95h1.6zm120.03 0h-3.92v-.95h3.92zm7.85 0h-3.9v-.95h3.9zm7.86 0h-3.92v-.95h3.92zm7.85 0h-3.92v-.95h3.93zm7.86 0h-3.93v-.95h3.93zm5.88 0h-1.96v-.95h1.96z" stroke="#3a414a" stroke-width=".05" fill="#3a414a"/><path d="M3295 841.6l-13-7.5 13-7.5z" fill="#3a414a"/><path d="M3295.47 842.42l-14.42-8.32 14.4-8.32zm-12.52-8.32l11.57 6.68v-13.36z" stroke="#3a414a" stroke-width=".05" fill="#3a414a"/><path d="M3484.34 834.1v.4l-.5.07v-.95h.52z" fill="#3a414a"/><path stroke="#3a414a" stroke-width=".05" fill="#3a414a"/><use xlink:href="#e" transform="matrix(1,0,0,1,3326.525208178218,823.3430754666343) translate(0 17.22222222222222)"/><path d="M3280 1020.32c0 33.13-35.82 60-80 60s-80-26.87-80-60c0-33.14 35.82-60 80-60s80 26.86 80 60z" stroke="#000" stroke-width="2" fill="#fff"/><use xlink:href="#l" transform="matrix(1,0,0,1,3120,960.3179801846927) translate(53.5667529296875 57.466875)"/><use xlink:href="#m" transform="matrix(1,0,0,1,3120,960.3179801846927) translate(36.53249511718749 77.72162109375)"/><path d="M3283.53 1020.8h-2.03v-.96h2.03zm8.1 0h-4.05v-.96h4.05zm8.1 0h-4.05v-.96h4.05zm8.1 0h-4.05v-.96h4.05zm8.1 0h-4.05v-.96h4.05zm8.1 0H3320v-.96h4.04zm8.1 0h-4.04v-.96h4.04zm8.1 0h-4.04v-.96h4.04zm8.1 0h-4.04v-.96h4.04zm8.12 0h-4.05v-.96h4.05zm8.1 0h-4.05v-.96h4.05zm121.54 0h-4.07v-.96h4.06zm8.1 0h-4.06v-.96h4.05zm8.1 0h-4.06v-.96h4.05zm8.1 0h-4.06v-.96h4.05zm8.1 0h-4.05v-.96h4.05zm8.1 0h-4.05v-.96h4.05zm8.55-.52l-.47.2-1 .24-1 .07h-2.03v-.96h2l.9-.07.83-.2.4-.17zm4-5.94l-.08 1-.24.98-.2.47-.87-.38.17-.4.2-.84.07-.88v-1.9h.95zm0-5.82h-.95v-3.86h.95zm0-7.72h-.95v-3.86h.95zm0-7.72h-.95v-3.86h.95zm0-7.73h-.95v-3.86h.95zm0-7.72h-.95v-3.86h.95zm0-7.72h-.95v-3.85h.95zm0-7.72h-.95v-3.86h.95zm0-7.72h-.95v-3.86h.95zm0-7.72h-.95v-3.86h.95zm0-7.73h-.95v-3.85h.95zm0-7.7h-.95v-3.87h.95zm0-7.73h-.95v-3.86h.95zm0-7.73h-.95V912h.95zm0-7.72h-.95v-1.93h.95z" stroke="#3a414a" stroke-width=".05" fill="#3a414a"/><path d="M3281.5 1020.8h-.5V1019.9l.5-.06z" fill="#3a414a"/><path stroke="#3a414a" stroke-width=".05" fill="#3a414a"/><path d="M3546.18 905.7h-15l7.5-13z" fill="#3a414a"/><path d="M3547 906.17h-16.65l8.33-14.42zm-15-.95h13.35l-6.67-11.57z" stroke="#3a414a" stroke-width=".05" fill="#3a414a"/><use xlink:href="#e" transform="matrix(1,0,0,1,3367.919859104311,1009.5627718513593) translate(0 17.22222222222222)"/><path d="M3280 1206.54c0 33.13-35.82 60-80 60s-80-26.87-80-60c0-33.14 35.82-60 80-60s80 26.86 80 60z" stroke="#000" stroke-width="2" fill="#fff"/><use xlink:href="#n" transform="matrix(1,0,0,1,3120,1146.5376765694177) translate(51.91563964843749 57.466875)"/><use xlink:href="#o" transform="matrix(1,0,0,1,3120,1146.5376765694177) translate(23.826279296874986 77.72162109375)"/><path d="M3280 1392.76c0 33.13-35.82 60-80 60s-80-26.87-80-60c0-33.14 35.82-60 80-60s80 26.86 80 60z" stroke="#000" stroke-width="2" fill="#fff"/><use xlink:href="#p" transform="matrix(1,0,0,1,3120,1332.7573729541425) translate(44.25267578124999 57.466875)"/><use xlink:href="#q" transform="matrix(1,0,0,1,3120,1332.7573729541425) translate(43.643725585937496 77.72162109375)"/><use xlink:href="#r" transform="matrix(1,0,0,1,3120,1332.7573729541425) translate(85.5100732421875 77.72162109375)"/><path d="M3283.5 1207h-2v-.94h2zm8.02 0h-4v-.94h4zm8 0h-4v-.94h4zm8.02 0h-4v-.94h4zm8.02 0h-4v-.94h4zm8 0h-4v-.94h4zm8.02 0h-4v-.94h4zm8.02 0h-4v-.94h4zm8 0h-4v-.94h4zm8.02 0h-4v-.94h4zm8.02 0h-4v-.94h4zm8 0h-4v-.94h4zm8.02 0h-4v-.94h4zm8.02 0h-4v-.94h4zm120.2 0h-4v-.94h4zm8 0h-4v-.94h4zm8.03 0h-4v-.94h4zm8.02 0h-4v-.94h4zm8 0h-4v-.94h4zm8.03 0h-4v-.94h4zm8 0h-4v-.94h4zm8.02 0h-4v-.94h4zm8.02 0h-4.02v-.94h4zm8 0h-4v-.94h4zm8.48-.5l-.47.2-.98.23-1 .08h-2v-.94h1.97l.87-.07.85-.2.4-.17zm4-5.94l-.07 1-.23.98-.2.47-.87-.36.16-.4.2-.84.07-.88v-1.97h.95zm0-6h-.95v-3.97h.95zm0-7.94h-.95v-3.98h.95zm0-7.96h-.95v-3.98h.95zm0-7.95h-.95v-3.97h.95zm0-7.95h-.95v-3.98h.95zm0-7.95h-.95v-3.98h.95zm0-7.96h-.95v-3.98h.95zm0-7.95h-.95v-4h.95zm0-7.97h-.95v-3.98h.95zm0-7.95h-.95V1119h.95zm0-7.96h-.95v-3.98h.95zm0-7.95h-.95v-3.98h.95zm0-7.96h-.95v-3.97h.95zm0-7.94h-.95v-3.98h.95zm0-7.96h-.95v-3.98h.95zm0-7.95h-.95v-3.98h.95zm0-7.96h-.95v-4h.95zm0-7.96h-.95v-3.98h.95zm0-7.96h-.95v-3.98h.95zm0-7.95h-.95v-3.98h.95zm0-7.96h-.95v-3.98h.95zm0-7.95h-.95v-3.98h.95zm0-7.96h-.95v-3.98h.95zm0-7.95h-.95v-3.97h.95zm0-7.95h-.95v-3.98h.95zm0-7.95h-.95v-3.98h.95zm0-7.96h-.95v-3.98h.95zm0-7.95h-.95v-4h.95zm0-7.97h-.95v-3.98h.95zm0-7.95h-.95v-3.98h.95zm0-7.96h-.95v-3.97h.95zm0-7.95h-.95V944h.95zm0-7.96h-.95v-3.97h.95zm0-7.94h-.95v-3.98h.95zm0-7.96h-.95v-3.98h.95zm0-7.95h-.95v-3.98h.95zm0-7.96h-.95v-2h.95z" stroke="#3a414a" stroke-width=".05" fill="#3a414a"/><path d="M3281.5 1207h-.5V1206.16l.5-.1z" fill="#3a414a"/><path stroke="#3a414a" stroke-width=".05" fill="#3a414a"/><path d="M3599.5 905.7h-15l7.5-13z" fill="#3a414a"/><path d="M3600.33 906.18h-16.64l8.3-14.42zm-15-.95h13.36l-6.7-11.57z" stroke="#3a414a" stroke-width=".05" fill="#3a414a"/><use xlink:href="#e" transform="matrix(1,0,0,1,3390.297226655338,1195.7824682360845) translate(0 17.22222222222222)"/><path d="M3283.48 1393.23h-1.98v-.95h1.98zm7.93 0h-3.95v-.95h3.96zm7.94 0h-3.96v-.95h3.96zm7.93 0h-3.96v-.95h3.97zm7.93 0h-3.96v-.95h3.96zm7.93 0h-3.96v-.95h3.96zm7.93 0h-3.96v-.95h3.96zm7.93 0h-3.97v-.95h3.96zm7.92 0h-3.96v-.95h3.96zm7.93 0h-3.96v-.95h3.95zm7.93 0h-3.96v-.95h3.96zm7.93 0h-3.95v-.95h3.96zm7.94 0h-3.96v-.95h3.96zm7.93 0h-3.96v-.95h3.97zm5.57 0h-1.6v-.95h1.6zm121.3 0h-3.96v-.95h3.97zm7.94 0h-3.97v-.95h3.98zm7.93 0h-3.96v-.95h3.97zm7.94 0h-3.97v-.95h3.97zm7.93 0h-3.97v-.95h3.97zm7.93 0h-3.97v-.95h3.97zm7.93 0h-3.97v-.95h3.97zm7.93 0H3565v-.95h3.96zm7.93 0h-3.98v-.95h3.97zm7.92 0h-3.97v-.95h3.97zm7.93 0h-3.97v-.95h3.97zm7.93 0h-3.97v-.95h3.98zm7.93 0h-3.96v-.95h3.97zm7.94 0h-3.97v-.95h3.97zm7.93 0h-3.97v-.95h3.97zm7.93 0h-3.97v-.95h3.97zm7.93 0h-3.97v-.95h3.97zm7.93 0h-3.97v-.95h3.96zm7.93 0h-3.98v-.95h3.97zm7.9 0h-3.95v-.95h3.96zm8.43-.5l-.47.2-.98.22-1 .08h-2v-.95h1.96l.9-.07.83-.2.4-.15zm-167 .5h-1.1v-.95h1.1zm171-6.45l-.07 1-.24.98-.2.47-.87-.37.17-.4.2-.84.07-.88v-1.97h.94zm0-6h-.94v-3.98h.94zm0-7.96h-.94v-4h.94zm0-7.97h-.94v-3.98h.94zm0-7.96l-.94-.02v-3.98h.94zm0-7.98h-.94v-4h.94zm0-7.97h-.94v-3.98h.94zm0-7.96h-.94v-4h.94zm0-7.98h-.94v-3.98h.94zm0-7.97h-.94v-3.98h.94zm0-7.96h-.94v-4h.94zm0-7.98h-.94v-3.98h.94zm0-7.96h-.94v-4h.94zm0-7.97h-.94v-4h.94zm0-7.98h-.94v-3.98h.94zm0-7.96h-.94v-3.98h.94zm0-7.97h-.94v-4h.94zm0-7.97h-.94v-4h.94zm0-7.97h-.94v-3.98h.94zm0-7.97h-.94v-4h.94zm0-7.97h-.94v-4h.94zm0-7.97h-.94v-3.98h.94zm0-7.97h-.94v-4h.94zm0-7.97h-.94v-3.98h.94zm0-7.97h-.94v-3.98h.94zm0-7.96h-.94v-4h.94zm0-7.97h-.94v-3.98h.94zm0-7.97h-.94v-3.98h.94zm0-7.96h-.94v-3.98h.94zm0-7.97h-.94v-3.98h.94zm0-7.96h-.94v-4h.94zm0-7.97h-.94v-3.98h.94zm0-7.96h-.94v-4h.94zm0-7.97h-.94v-3.98l.94-.02zm0-7.97h-.94v-3.98h.94zm0-7.96h-.94v-4h.94zm0-7.97h-.94V1098h.94zm0-7.97h-.94v-3.98h.94zm0-7.96h-.94v-3.98h.94zm0-7.97h-.94v-3.98h.94zm0-7.96h-.94v-3.98h.94zm0-7.96h-.94v-3.98h.94zm0-7.97h-.94v-3.98h.94zm0-7.96h-.94v-3.98h.94zm0-7.96h-.94v-3.98h.94zm0-7.96h-.94v-4h.94zm0-7.97h-.94v-3.97h.94zm0-7.96h-.94v-3.98h.94zm0-7.96h-.94v-4h.94zm0-7.97h-.94v-3.97h.94zm0-7.95h-.94v-4h.94zm0-7.97h-.94v-3.98h.94zm0-7.97h-.94v-3.97h.94zm0-7.95h-.94v-4h.94zm0-7.97h-.94v-3.98h.94zm0-7.97h-.94v-3.97h.94zm0-7.95h-.94v-3.98h.94zm0-7.97h-.94v-3.98h.94zm0-7.96h-.94v-4h.94zm0-7.97h-.94v-3.98h.94zm0-7.97h-.94v-3.98h.94zm0-7.96h-.94v-4h.94zm0-7.97h-.94v-3.98h.94zm0-7.96h-.94v-4h.94zm0-7.98h-.94v-3.98h.94zm0-7.97h-.94v-3.98h.94zm0-7.96h-.94v-4h.94zm0-7.98h-.94v-3.98h.94zm0-7.96h-.94v-4h.94zm0-7.97h-.94v-4h.94zm0-7.98h-.94v-3.98h.94zm0-7.96h-.94v-4h.94zm0-7.97h-.94v-4h.94zm0-7.97h-.94v-4h.94zm0-7.97h-.94v-3.98h.94zm0-7.97h-.94v-4h.94zm0-7.97h-.94v-4h.94zm0-7.97h-.94v-3.98h.94zm0-7.97h-.94v-4h.94zm0-7.97h-.94v-3.98h.94zm0-7.97h-.94v-3.98h.94zm0-7.96h-.94v-4h.94zm0-7.97h-.94v-3.98h.94zm0-7.96h-.94v-4h.94zm0-7.97h-.94v-3.98h.94zm0-7.97h-.94v-3.98h.94zm0-7.96h-.94v-4h.94zm0-7.97h-.94v-3.98h.94zm0-7.97h-.94v-3.98h.94zm0-7.96h-.94v-4h.94zm0-7.97h-.94v-3.98h.94zm0-7.96h-.94v-4h.94zm-.3-11.96l.23 1 .08.98v2h-.95v-1.96l-.08-.88-.2-.85-.17-.4.88-.36zm-5.15-4.4l.98.24.47.2-.36.87-.4-.17-.84-.2-.9-.08h-2.28v-.95h2.33zm-7.94.87h-2.3v-.95h2.3z" stroke="#3a414a" stroke-width=".05" fill="#3a414a"/><path d="M3281.5 1393.23h-.5V1392.37l.5-.1z" fill="#3a414a"/><path stroke="#3a414a" stroke-width=".05" fill="#3a414a"/><path d="M3660.33 655.38l-13-7.5 13-7.5z" fill="#3a414a"/><path d="M3660.8 656.2l-14.4-8.32 14.4-8.32zm-12.5-8.32l11.56 6.68V641.2z" stroke="#3a414a" stroke-width=".05" fill="#3a414a"/><use xlink:href="#e" transform="matrix(1,0,0,1,3392.143772567654,1382.0021646208093) translate(0 17.22222222222222)"/><path d="M3565.82 772.6h-.95v-1.97h.95zm0-5.92h-.95v-3.94h.95zm0-7.9h-.95v-3.93h.95zm0-31.54h-.95v-1.98h.95z" stroke="#3a414a" stroke-width=".05" fill="#3a414a"/><path d="M3565.82 773.1h-.96v-.5h.96z" fill="#3a414a"/><path stroke="#3a414a" stroke-width=".05" fill="#3a414a"/><path d="M3569.98 724.76h-9.27l4.64-14.26z" fill="#3a414a"/><path d="M3570.63 725.24h-10.58l5.3-16.28zm-9.27-.95h7.96l-3.98-12.27z" stroke="#3a414a" stroke-width=".05" fill="#3a414a"/><use xlink:href="#e" transform="matrix(1,0,0,1,3509.1962496897695,730.2332272742719) translate(0 17.22222222222222)"/><path d="M2639.75 1006.44c0 10.9-8.84 19.75-19.75 19.75-10.9 0-19.75-8.85-19.75-19.76 0-10.9 8.84-19.75 19.75-19.75 10.9 0 19.75 8.83 19.75 19.74z" stroke="#3a414a" stroke-width="4" fill="#fff"/><path d="M2620 1026.2v49.3a20.7 20.7 0 0 0 3.2 11.06l36.8 58.13m-40-63.2l-40 63.2m0-98.76h80" stroke="#3a414a" stroke-width="4" fill="none"/><path d="M2580 992.7a6 6 0 0 1 6-6h68a6 6 0 0 1 6 6v168a6 6 0 0 1-6 6h-68a6 6 0 0 1-6-6z" fill="none"/><use xlink:href="#s" transform="matrix(1,0,0,1,2500,1144.6912627088013) translate(76.97157118055556 21.52777777777778)"/><path d="M2692.67 1076.7H2784a6 6 0 0 0 6-6V653.87a6 6 0 0 1 6-6h322.5M2692.68 1076.7h-.5" stroke="#3a414a" fill="none"/><path d="M3119 647.87V648.35h-.5v-.95h.5z" stroke="#3a414a" stroke-width=".05" fill="#3a414a"/><path d="M3560.36 559.6l.98.24.94.4.87.52.77.66.66.77.53.86.4.94.24 1 .08.98v20.4h-.95v-20.36l-.07-.88-.2-.85-.34-.8-.45-.75-.55-.66-.66-.57-.75-.45-.8-.33-.84-.2-.88-.07h-823.3l-.88.06-.85.2-.8.34-.75.45-.66.56-.57.65-.45.74-.33.8-.2.84-.08.88v504.7l-.07.98-.24 1-.4.93-.52.87-.66.77-.77.66-.86.53-.94.4-1 .23-.98.07h-31.35v-.95h31.3l.9-.07.84-.2.8-.34.75-.44.66-.56.57-.66.45-.74.33-.8.2-.85.08-.88v-504.7l.07-.98.24-1 .4-.94.52-.87.66-.78.77-.66.86-.53.94-.4 1-.23.98-.08h823.38zM2692.68 1077.17h-.5v-.95h.5z" stroke="#3a414a" stroke-width=".05" fill="#3a414a"/><path d="M3565.82 586.9l-.46-.02h-.5v-.5h.96z" fill="#3a414a"/><path stroke="#3a414a" stroke-width=".05" fill="#3a414a"/><path d="M3502.6 919.44l-.1 1-.23.98-.4.94-.52.87-.66.77-.78.66-.87.53-.94.38-.97.24-1 .07h-680.1l-.9.06-.84.2-.8.34-.75.45-.66.56-.57.67-.45.74-.33.8-.2.85-.08.9v139.26l-.07 1-.24 1-.4.93-.52.87-.66.77-.77.66-.86.53-.94.4-1 .23-.98.07h-111.35v-.95h111.3l.9-.07.84-.2.8-.34.75-.44.66-.56.57-.66.45-.74.33-.8.2-.85.08-.88V931.4l.07-1 .24-.98.4-.94.52-.87.66-.76.77-.66.86-.53.94-.4 1-.23.98-.08h680.1l.9-.07.84-.2.8-.33.74-.45.66-.58.56-.66.45-.73.34-.8.2-.85.07-.88v-46.67h.95z" stroke="#3a414a" stroke-width=".05" fill="#3a414a"/><path d="M2692.68 1077.17h-.5v-.95h.5z" stroke="#3a414a" stroke-width=".05" fill="#3a414a"/><path d="M3502.3 872.43l.3.24-.96.08v-1z" fill="#3a414a"/><path stroke="#3a414a" stroke-width=".05" fill="#3a414a"/><path d="M2692.67 1076.7H2754a6 6 0 0 0 6-6V840.1a6 6 0 0 1 6-6h19c0-2.76 2.24-5 5-5s5 2.24 5 5h323.5M2692.68 1076.7h-.5" stroke="#3a414a" fill="none"/><path d="M3119 834.1V834.56h-.5v-.95h.5z" stroke="#3a414a" stroke-width=".05" fill="#3a414a"/><path d="M2692.67 1076.7H3073a6 6 0 0 0 6-6v-44.38a6 6 0 0 1 6-6h33.5M2692.68 1076.7h-.5" stroke="#3a414a" fill="none"/><path d="M3119 1020.3v.49h-.5v-.96h.5z" stroke="#3a414a" stroke-width=".05" fill="#3a414a"/><path d="M2692.67 1076.7H2784a6 6 0 0 1 6 6v157.6a6 6 0 0 0 6 6h138.4a.1.1 0 0 0 .1-.1.1.1 0 0 1 .1-.1H3073a6 6 0 0 0 6-6v-27.56a6 6 0 0 1 6-6h33.5M2692.68 1076.7h-.5" stroke="#3a414a" fill="none"/><path d="M3119 1206.52v.49h-.5v-.94h.5z" stroke="#3a414a" stroke-width=".05" fill="#3a414a"/><path d="M2692.67 1076.7H2754a6 6 0 0 1 6 6v304.06a6 6 0 0 0 6 6h352.5M2692.68 1076.7h-.5" stroke="#3a414a" fill="none"/><path d="M3119 1392.74v.49h-.5v-.95h.5z" stroke="#3a414a" stroke-width=".05" fill="#3a414a"/><path d="M2660.5 1076.7h119M2660.5 1076.7h-.5M2779.5 1076.7h.5" stroke="#3a414a" fill="none"/><defs><path d="M135 0v-1490h581c339 0 533 210 533 503 0 295-197 500-540 500H440V0H135zm305-733h220c186 0 274-104 274-254s-88-251-275-251H440v505" id="t"/><path d="M633 22C291 22 81-200 81-553c0-345 210-579 537-579 292 0 525 185 525 567v84H378c7 183 109 277 260 277 105 0 184-46 216-132l272 51C1071-99 893 22 633 22zM380-669h474c-15-146-94-237-233-237-143 0-229 99-241 237" id="u"/><path d="M128 0v-1118h290v195h12c54-169 184-238 367-200v268c-27-8-86-15-130-15-138 0-239 95-239 234V0H128" id="v"/><path d="M572 22C302 22 117-98 78-306l279-48c29 105 101 156 224 156 114 0 185-48 185-115 0-118-228-130-337-155-215-49-322-150-322-317 0-215 187-347 470-347 265 0 424 116 466 298l-266 47c-24-76-87-130-196-130-98 0-174 46-174 113 0 56 38 95 144 117l201 40c216 44 320 143 320 302 0 220-207 367-500 367" id="w"/><path d="M628 22C291 22 81-210 81-554c0-346 210-578 547-578 336 0 547 232 547 578 0 344-211 576-547 576zm0-236c160 0 242-146 242-341 0-197-82-341-242-341S387-753 387-555c0 195 81 341 241 341" id="x"/><path d="M428-647V0H128v-1118h283l4 231c63-156 176-245 348-245 232 0 384 159 384 421V0H847v-659c0-139-76-222-202-222-128 0-217 86-217 234" id="y"/><path d="M440 22C227 22 68-92 68-313c0-250 202-322 422-343 195-21 271-24 271-105 0-95-63-149-175-149-116 0-187 57-211 129l-275-46c57-194 237-305 487-305 240 0 474 108 474 379V0H777v-155h-10C713-51 605 22 440 22zm85-211c140 0 238-93 238-211v-121c-37 26-156 42-222 51-111 16-185 59-185 149 0 87 70 132 169 132" id="z"/><g id="a"><use transform="matrix(0.014127604166666669,0,0,0.014127604166666669,0,0)" xlink:href="#t"/><use transform="matrix(0.014127604166666669,0,0,0.014127604166666669,18.507161458333336,0)" xlink:href="#u"/><use transform="matrix(0.014127604166666669,0,0,0.014127604166666669,35.74283854166667,0)" xlink:href="#v"/><use transform="matrix(0.014127604166666669,0,0,0.014127604166666669,47.52526041666667,0)" xlink:href="#w"/><use transform="matrix(0.014127604166666669,0,0,0.014127604166666669,63.72962239583334,0)" xlink:href="#x"/><use transform="matrix(0.014127604166666669,0,0,0.014127604166666669,81.47389322916668,0)" xlink:href="#y"/><use transform="matrix(0.014127604166666669,0,0,0.014127604166666669,99.48658854166668,0)" xlink:href="#z"/></g><path d="M783 20c-382 0-661-292-661-764 0-473 279-766 661-766 302 0 548 182 601 489h-190c-42-204-217-313-411-313-268 0-476 208-476 590 0 381 209 588 476 588 195 0 369-110 411-313h190c-52 303-296 489-601 489" id="A"/><path d="M613 24c-304 0-509-231-509-576 0-350 205-580 509-580 305 0 511 230 511 580 0 345-206 576-511 576zm0-161c226 0 329-195 329-415 0-222-103-419-329-419-223 0-326 196-326 419 0 220 103 415 326 415" id="B"/><path d="M338-670V0H158v-1118h173l1 207c72-158 192-221 342-221 226 0 378 139 378 422V0H872v-695c0-172-96-275-252-275-161 0-282 109-282 300" id="C"/><path d="M538 24C308 24 148-78 108-271l171-41c32 123 123 178 257 178 156 0 256-77 256-169 0-77-54-128-164-154l-186-44c-203-48-300-148-300-305 0-192 176-326 414-326 230 0 351 112 402 269l-163 42c-31-80-94-158-238-158-133 0-233 69-233 162 0 83 57 129 188 160l169 40c203 48 298 149 298 302 0 196-179 339-441 339" id="D"/><path d="M537 14c-226 0-379-139-379-422v-710h180v695c0 172 97 275 253 275 160 0 281-109 281-300v-670h181V0H879v-209C806-46 684 14 537 14" id="E"/><path d="M338-1490V0H158v-1490h180" id="F"/><path d="M598-1118v154H368v674c0 100 37 144 132 144 23 0 62-6 92-12L629-6c-37 13-88 20-134 20-193 0-307-107-307-290v-688H20v-154h168v-266h180v266h230" id="G"/><path d="M471 26C259 26 90-98 90-318c0-256 228-303 435-329 202-27 287-16 287-108 0-139-79-219-234-219-161 0-248 86-283 164l-173-57c86-203 278-265 451-265 150 0 419 46 419 395V0H815v-152h-12C765-73 660 26 471 26zm31-159c199 0 310-134 310-271v-155c-30 35-226 55-295 64-131 17-246 59-246 186 0 116 97 176 231 176" id="H"/><g id="b"><use transform="matrix(0.008173828125000001,0,0,0.008173828125000001,0,0)" xlink:href="#A"/><use transform="matrix(0.008173828125000001,0,0,0.008173828125000001,12.228046875000002,0)" xlink:href="#B"/><use transform="matrix(0.008173828125000001,0,0,0.008173828125000001,22.265507812500008,0)" xlink:href="#C"/><use transform="matrix(0.008173828125000001,0,0,0.008173828125000001,32.15583984375,0)" xlink:href="#D"/><use transform="matrix(0.008173828125000001,0,0,0.008173828125000001,40.991748046875,0)" xlink:href="#E"/><use transform="matrix(0.008173828125000001,0,0,0.008173828125000001,50.89025390625,0)" xlink:href="#F"/><use transform="matrix(0.008173828125000001,0,0,0.008173828125000001,55.189687500000005,0)" xlink:href="#G"/><use transform="matrix(0.008173828125000001,0,0,0.008173828125000001,60.747890625000004,0)" xlink:href="#H"/></g><path d="M158 0v-1118h174v172h12c41-113 157-188 290-188 26 0 70 2 91 3v181c-11-2-60-10-108-10-161 0-279 109-279 260V0H158" id="I"/><path d="M628 24c-324 0-524-230-524-574 0-343 198-582 503-582 237 0 487 146 487 559v75H286c9 234 145 362 343 362 132 0 231-58 273-172l174 48C1024-91 857 24 628 24zM287-650h624c-17-190-120-322-304-322-192 0-309 151-320 322" id="J"/><path d="M158 0v-1118h180V0H158zm91-1301c-68 0-125-53-125-119s57-119 125-119c69 0 126 53 126 119s-57 119-126 119" id="K"/><g id="c"><use transform="matrix(0.008173828125000001,0,0,0.008173828125000001,0,0)" xlink:href="#I"/><use transform="matrix(0.008173828125000001,0,0,0.008173828125000001,6.0241113281250005,0)" xlink:href="#J"/><use transform="matrix(0.008173828125000001,0,0,0.008173828125000001,15.783662109375001,0)" xlink:href="#G"/><use transform="matrix(0.008173828125000001,0,0,0.008173828125000001,21.260126953125003,0)" xlink:href="#K"/></g><path d="M577 24c-279 0-473-224-473-580 0-354 195-576 474-576 218 0 287 134 324 193h14v-551h180V0H922v-173h-20C865-111 790 24 577 24zm27-161c203 0 314-172 314-421 0-247-108-413-314-413-212 0-317 181-317 413 0 235 108 421 317 421" id="L"/><path d="M158 418v-1536h174v179h20c37-59 106-193 324-193 279 0 474 222 474 576 0 356-194 580-473 580-213 0-288-135-325-197h-14v591H158zm492-555c209 0 317-186 317-421 0-232-105-413-317-413-206 0-314 166-314 413 0 249 111 421 314 421" id="M"/><path d="M677 24c-213 0-288-135-325-197h-20V0H158v-1490h180v551h14c37-59 106-193 324-193 279 0 474 222 474 576 0 356-194 580-473 580zm-27-161c209 0 317-186 317-421 0-232-105-413-317-413-206 0-314 166-314 413 0 249 111 421 314 421" id="N"/><g id="d"><use transform="matrix(0.008173828125000001,0,0,0.008173828125000001,0,0)" xlink:href="#L"/><use transform="matrix(0.008173828125000001,0,0,0.008173828125000001,10.249980468750001,0)" xlink:href="#K"/><use transform="matrix(0.008173828125000001,0,0,0.008173828125000001,14.304199218750002,0)" xlink:href="#D"/><use transform="matrix(0.008173828125000001,0,0,0.008173828125000001,23.140107421875,0)" xlink:href="#M"/><use transform="matrix(0.008173828125000001,0,0,0.008173828125000001,33.390087890625004,0)" xlink:href="#B"/><use transform="matrix(0.008173828125000001,0,0,0.008173828125000001,43.427548828125005,0)" xlink:href="#C"/><use transform="matrix(0.008173828125000001,0,0,0.008173828125000001,53.31788085937501,0)" xlink:href="#K"/><use transform="matrix(0.008173828125000001,0,0,0.008173828125000001,57.37209960937501,0)" xlink:href="#N"/><use transform="matrix(0.008173828125000001,0,0,0.008173828125000001,67.62208007812501,0)" xlink:href="#K"/><use transform="matrix(0.008173828125000001,0,0,0.008173828125000001,71.67629882812501,0)" xlink:href="#F"/><use transform="matrix(0.008173828125000001,0,0,0.008173828125000001,75.73051757812502,0)" xlink:href="#K"/></g><path fill="#333" d="M166-471v-247l1019-454v289L492-601v13l693 282v287" id="O"/><path fill="#333" d="M128 0v-1118h300V0H128zm150-1264c-91 0-165-68-165-154 0-85 74-154 165-154 90 0 165 69 165 154 0 86-75 154-165 154" id="P"/><path fill="#333" d="M428-647V0H128v-1118h283l4 231c63-156 176-245 348-245 232 0 384 159 384 421V0H847v-659c0-139-76-222-202-222-128 0-217 86-217 234" id="Q"/><path fill="#333" d="M628 22C291 22 81-210 81-554c0-346 210-578 547-578 265 0 455 142 497 372l-279 52c-25-116-99-188-215-188-160 0-244 139-244 341 0 200 84 341 244 341 116 0 193-74 217-195l279 51C1085-123 896 22 628 22" id="R"/><path fill="#333" d="M428-1490V0H128v-1490h300" id="S"/><path fill="#333" d="M513 14c-232 0-385-159-385-421v-711h300v659c0 139 76 222 202 222 127 0 217-86 217-234v-647h301V0H864l-4-232C797-74 683 14 513 14" id="T"/><path fill="#333" d="M537 19C279 19 81-185 81-557c0-382 206-575 454-575 190 0 278 113 318 202h10v-560h300V0H868v-179h-15C812-89 719 19 537 19zm92-241c153 0 240-134 240-336 0-203-86-334-240-334-158 0-240 138-240 334 0 197 84 336 240 336" id="U"/><path fill="#333" d="M633 22C291 22 81-200 81-553c0-345 210-579 537-579 292 0 525 185 525 567v84H378c7 183 109 277 260 277 105 0 184-46 216-132l272 51C1071-99 893 22 633 22zM380-669h474c-15-146-94-237-233-237-143 0-229 99-241 237" id="V"/><path fill="#333" d="M1224-471L205-19v-287l694-281v-14L205-883v-289l1019 454v247" id="W"/><g id="e"><use transform="matrix(0.008680555555555556,0,0,0.008680555555555556,0,0)" xlink:href="#O"/><use transform="matrix(0.008680555555555556,0,0,0.008680555555555556,12.065972222222223,0)" xlink:href="#O"/><use transform="matrix(0.008680555555555556,0,0,0.008680555555555556,24.131944444444446,0)" xlink:href="#P"/><use transform="matrix(0.008680555555555556,0,0,0.008680555555555556,28.94965277777778,0)" xlink:href="#Q"/><use transform="matrix(0.008680555555555556,0,0,0.008680555555555556,40.017361111111114,0)" xlink:href="#R"/><use transform="matrix(0.008680555555555556,0,0,0.008680555555555556,50.47743055555556,0)" xlink:href="#S"/><use transform="matrix(0.008680555555555556,0,0,0.008680555555555556,55.29513888888889,0)" xlink:href="#T"/><use transform="matrix(0.008680555555555556,0,0,0.008680555555555556,66.36284722222223,0)" xlink:href="#U"/><use transform="matrix(0.008680555555555556,0,0,0.008680555555555556,77.56944444444446,0)" xlink:href="#V"/><use transform="matrix(0.008680555555555556,0,0,0.008680555555555556,88.15972222222223,0)" xlink:href="#W"/><use transform="matrix(0.008680555555555556,0,0,0.008680555555555556,100.22569444444447,0)" xlink:href="#W"/></g><path d="M657 26c-323 0-524-166-541-416h195c15 169 171 246 346 246 202 0 356-106 356-265 5-203-294-238-475-293-239-73-380-191-380-389 0-252 224-419 512-419 294 0 499 171 508 396H992c-17-145-151-228-328-228-193 0-321 102-321 242 0 156 175 211 284 241l149 41c160 44 422 134 422 412 0 244-197 432-541 432" id="X"/><path d="M613 24c-304 0-509-231-509-576 0-350 205-580 509-580 216 0 392 114 453 309l-173 49c-33-115-133-197-280-197-223 0-326 196-326 419 0 220 103 415 326 415 150 0 252-85 285-206l172 49C1010-95 832 24 613 24" id="Y"/><path d="M481 0L54-1118h197c107 314 236 620 325 951 87-331 217-637 324-951h197L670 0H481" id="Z"/><g id="f"><use transform="matrix(0.008173828125000001,0,0,0.008173828125000001,0,0)" xlink:href="#X"/><use transform="matrix(0.008173828125000001,0,0,0.008173828125000001,10.740410156250002,0)" xlink:href="#B"/><use transform="matrix(0.008173828125000001,0,0,0.008173828125000001,20.77787109375,0)" xlink:href="#G"/><use transform="matrix(0.008173828125000001,0,0,0.008173828125000001,25.845644531250002,0)" xlink:href="#G"/><use transform="matrix(0.008173828125000001,0,0,0.008173828125000001,31.158632812500002,0)" xlink:href="#B"/><use transform="matrix(0.008173828125000001,0,0,0.008173828125000001,41.19609375,0)" xlink:href="#D"/><use transform="matrix(0.008173828125000001,0,0,0.008173828125000001,50.032001953125004,0)" xlink:href="#Y"/><use transform="matrix(0.008173828125000001,0,0,0.008173828125000001,59.595380859375005,0)" xlink:href="#I"/><use transform="matrix(0.008173828125000001,0,0,0.008173828125000001,66.15896484375,0)" xlink:href="#K"/><use transform="matrix(0.008173828125000001,0,0,0.008173828125000001,70.21318359375,0)" xlink:href="#Z"/><use transform="matrix(0.008173828125000001,0,0,0.008173828125000001,79.621259765625,0)" xlink:href="#K"/></g><path d="M52 0l541-1490h220L1361 0h-200l-149-416H398L254 0H52zm404-582h497c-103-290-145-390-251-756-108 377-145 460-246 756" id="aa"/><g id="g"><use transform="matrix(0.008173828125000001,0,0,0.008173828125000001,0,0)" xlink:href="#aa"/><use transform="matrix(0.008173828125000001,0,0,0.008173828125000001,10.413457031250001,0)" xlink:href="#Z"/><use transform="matrix(0.008173828125000001,0,0,0.008173828125000001,19.821533203125,0)" xlink:href="#Z"/><use transform="matrix(0.008173828125000001,0,0,0.008173828125000001,29.229609375000003,0)" xlink:href="#K"/><use transform="matrix(0.008173828125000001,0,0,0.008173828125000001,33.283828125,0)" xlink:href="#H"/></g><path d="M158 0v-1118h175l1 205c55-151 181-225 313-225 147 0 245 90 285 228 53-141 190-228 352-228 194 0 352 125 352 384V0h-181v-749c0-161-105-225-225-225-151 0-243 103-243 244V0H807v-767c0-124-93-207-219-207-131 0-250 92-250 270V0H158" id="ab"/><path d="M126 0v-134l627-806v-11H146v-167h839v143L376-178v11h629V0H126" id="ac"/><g id="h"><use transform="matrix(0.008173828125000001,0,0,0.008173828125000001,0,0)" xlink:href="#Y"/><use transform="matrix(0.008173828125000001,0,0,0.008173828125000001,9.563378906250001,0)" xlink:href="#B"/><use transform="matrix(0.008173828125000001,0,0,0.008173828125000001,19.600839843750002,0)" xlink:href="#ab"/><use transform="matrix(0.008173828125000001,0,0,0.008173828125000001,34.26468750000001,0)" xlink:href="#M"/><use transform="matrix(0.008173828125000001,0,0,0.008173828125000001,44.51466796875001,0)" xlink:href="#E"/><use transform="matrix(0.008173828125000001,0,0,0.008173828125000001,54.41317382812501,0)" xlink:href="#G"/><use transform="matrix(0.008173828125000001,0,0,0.008173828125000001,59.97137695312501,0)" xlink:href="#H"/><use transform="matrix(0.008173828125000001,0,0,0.008173828125000001,69.37127929687502,0)" xlink:href="#ac"/><use transform="matrix(0.008173828125000001,0,0,0.008173828125000001,78.61587890625002,0)" xlink:href="#K"/><use transform="matrix(0.008173828125000001,0,0,0.008173828125000001,82.67009765625002,0)" xlink:href="#B"/><use transform="matrix(0.008173828125000001,0,0,0.008173828125000001,92.70755859375002,0)" xlink:href="#C"/><use transform="matrix(0.008173828125000001,0,0,0.008173828125000001,102.597890625,0)" xlink:href="#J"/></g><g id="i"><use transform="matrix(0.008173828125000001,0,0,0.008173828125000001,0,0)" xlink:href="#A"/><use transform="matrix(0.008173828125000001,0,0,0.008173828125000001,12.228046875000002,0)" xlink:href="#B"/><use transform="matrix(0.008173828125000001,0,0,0.008173828125000001,22.265507812500008,0)" xlink:href="#C"/><use transform="matrix(0.008173828125000001,0,0,0.008173828125000001,32.15583984375,0)" xlink:href="#D"/><use transform="matrix(0.008173828125000001,0,0,0.008173828125000001,40.991748046875,0)" xlink:href="#E"/><use transform="matrix(0.008173828125000001,0,0,0.008173828125000001,50.89025390625,0)" xlink:href="#F"/><use transform="matrix(0.008173828125000001,0,0,0.008173828125000001,55.189687500000005,0)" xlink:href="#G"/><use transform="matrix(0.008173828125000001,0,0,0.008173828125000001,60.747890625000004,0)" xlink:href="#H"/></g><path d="M611 442c-248 0-391-105-460-228l146-94c47 65 117 165 314 165 178 0 307-82 307-266v-224h-17C863-141 792-18 576-18c-268 0-472-195-472-546 0-346 197-568 476-568 216 0 288 133 326 193h17v-179h175V29c0 289-215 413-487 413zm-5-620c203 0 314-146 314-390 0-237-108-403-314-403-213 0-319 180-319 403 0 230 109 390 319 390" id="ad"/><g id="j"><use transform="matrix(0.008173828125000001,0,0,0.008173828125000001,0,0)" xlink:href="#Y"/><use transform="matrix(0.008173828125000001,0,0,0.008173828125000001,9.726855468750001,0)" xlink:href="#H"/><use transform="matrix(0.008173828125000001,0,0,0.008173828125000001,19.126757812500003,0)" xlink:href="#G"/><use transform="matrix(0.008173828125000001,0,0,0.008173828125000001,24.684960937500005,0)" xlink:href="#H"/><use transform="matrix(0.008173828125000001,0,0,0.008173828125000001,34.08486328125001,0)" xlink:href="#F"/><use transform="matrix(0.008173828125000001,0,0,0.008173828125000001,38.13908203125001,0)" xlink:href="#B"/><use transform="matrix(0.008173828125000001,0,0,0.008173828125000001,48.17654296875001,0)" xlink:href="#ad"/><use transform="matrix(0.008173828125000001,0,0,0.008173828125000001,58.442871093750014,0)" xlink:href="#B"/></g><g id="k"><use transform="matrix(0.008173828125000001,0,0,0.008173828125000001,0,0)" xlink:href="#D"/><use transform="matrix(0.008173828125000001,0,0,0.008173828125000001,8.835908203125001,0)" xlink:href="#B"/><use transform="matrix(0.008173828125000001,0,0,0.008173828125000001,18.873369140625,0)" xlink:href="#G"/><use transform="matrix(0.008173828125000001,0,0,0.008173828125000001,23.941142578125003,0)" xlink:href="#G"/><use transform="matrix(0.008173828125000001,0,0,0.008173828125000001,29.254130859375003,0)" xlink:href="#B"/><use transform="matrix(0.008173828125000001,0,0,0.008173828125000001,39.291591796875004,0)" xlink:href="#D"/><use transform="matrix(0.008173828125000001,0,0,0.008173828125000001,48.127500000000005,0)" xlink:href="#Y"/><use transform="matrix(0.008173828125000001,0,0,0.008173828125000001,57.690878906250006,0)" xlink:href="#I"/><use transform="matrix(0.008173828125000001,0,0,0.008173828125000001,64.254462890625,0)" xlink:href="#K"/><use transform="matrix(0.008173828125000001,0,0,0.008173828125000001,68.30868164062501,0)" xlink:href="#ac"/><use transform="matrix(0.008173828125000001,0,0,0.008173828125000001,77.55328125000001,0)" xlink:href="#K"/><use transform="matrix(0.008173828125000001,0,0,0.008173828125000001,81.60750000000002,0)" xlink:href="#B"/><use transform="matrix(0.008173828125000001,0,0,0.008173828125000001,91.64496093750002,0)" xlink:href="#C"/><use transform="matrix(0.008173828125000001,0,0,0.008173828125000001,101.53529296875001,0)" xlink:href="#K"/></g><path d="M180 0v-1490h908v168H370v486h669v168H370v500h727V0H180" id="ae"/><g id="l"><use transform="matrix(0.008173828125000001,0,0,0.008173828125000001,0,0)" xlink:href="#ae"/><use transform="matrix(0.008173828125000001,0,0,0.008173828125000001,10.061982421875001,0)" xlink:href="#D"/><use transform="matrix(0.008173828125000001,0,0,0.008173828125000001,18.897890625000002,0)" xlink:href="#J"/><use transform="matrix(0.008173828125000001,0,0,0.008173828125000001,28.65744140625,0)" xlink:href="#ad"/><use transform="matrix(0.008173828125000001,0,0,0.008173828125000001,38.92376953125,0)" xlink:href="#E"/><use transform="matrix(0.008173828125000001,0,0,0.008173828125000001,48.822275390624995,0)" xlink:href="#K"/></g><g id="m"><use transform="matrix(0.008173828125000001,0,0,0.008173828125000001,0,0)" xlink:href="#G"/><use transform="matrix(0.008173828125000001,0,0,0.008173828125000001,5.4764648437500005,0)" xlink:href="#I"/><use transform="matrix(0.008173828125000001,0,0,0.008173828125000001,11.778486328125002,0)" xlink:href="#H"/><use transform="matrix(0.008173828125000001,0,0,0.008173828125000001,21.178388671875005,0)" xlink:href="#C"/><use transform="matrix(0.008173828125000001,0,0,0.008173828125000001,31.068720703125006,0)" xlink:href="#D"/><use transform="matrix(0.008173828125000001,0,0,0.008173828125000001,39.90462890625001,0)" xlink:href="#K"/><use transform="matrix(0.008173828125000001,0,0,0.008173828125000001,43.958847656250015,0)" xlink:href="#ac"/><use transform="matrix(0.008173828125000001,0,0,0.008173828125000001,53.203447265625016,0)" xlink:href="#K"/><use transform="matrix(0.008173828125000001,0,0,0.008173828125000001,57.25766601562502,0)" xlink:href="#B"/><use transform="matrix(0.008173828125000001,0,0,0.008173828125000001,67.29512695312502,0)" xlink:href="#C"/><use transform="matrix(0.008173828125000001,0,0,0.008173828125000001,77.18545898437502,0)" xlink:href="#J"/></g><g id="n"><use transform="matrix(0.008173828125000001,0,0,0.008173828125000001,0,0)" xlink:href="#ae"/><use transform="matrix(0.008173828125000001,0,0,0.008173828125000001,10.061982421875001,0)" xlink:href="#F"/><use transform="matrix(0.008173828125000001,0,0,0.008173828125000001,14.116201171875002,0)" xlink:href="#K"/><use transform="matrix(0.008173828125000001,0,0,0.008173828125000001,18.170419921875002,0)" xlink:href="#ab"/><use transform="matrix(0.008173828125000001,0,0,0.008173828125000001,32.83426757812501,0)" xlink:href="#K"/><use transform="matrix(0.008173828125000001,0,0,0.008173828125000001,36.88848632812501,0)" xlink:href="#C"/><use transform="matrix(0.008173828125000001,0,0,0.008173828125000001,46.77881835937501,0)" xlink:href="#H"/></g><g id="o"><use transform="matrix(0.008173828125000001,0,0,0.008173828125000001,0,0)" xlink:href="#Y"/><use transform="matrix(0.008173828125000001,0,0,0.008173828125000001,9.563378906250001,0)" xlink:href="#B"/><use transform="matrix(0.008173828125000001,0,0,0.008173828125000001,19.600839843750002,0)" xlink:href="#ab"/><use transform="matrix(0.008173828125000001,0,0,0.008173828125000001,34.26468750000001,0)" xlink:href="#M"/><use transform="matrix(0.008173828125000001,0,0,0.008173828125000001,44.51466796875001,0)" xlink:href="#E"/><use transform="matrix(0.008173828125000001,0,0,0.008173828125000001,54.41317382812501,0)" xlink:href="#G"/><use transform="matrix(0.008173828125000001,0,0,0.008173828125000001,59.97137695312501,0)" xlink:href="#H"/><use transform="matrix(0.008173828125000001,0,0,0.008173828125000001,69.37127929687502,0)" xlink:href="#ac"/><use transform="matrix(0.008173828125000001,0,0,0.008173828125000001,78.61587890625002,0)" xlink:href="#K"/><use transform="matrix(0.008173828125000001,0,0,0.008173828125000001,82.67009765625002,0)" xlink:href="#B"/><use transform="matrix(0.008173828125000001,0,0,0.008173828125000001,92.70755859375002,0)" xlink:href="#C"/><use transform="matrix(0.008173828125000001,0,0,0.008173828125000001,102.597890625,0)" xlink:href="#J"/></g><path d="M645 0H180v-1490h484c435 0 692 280 692 742 0 466-257 748-711 748zM370-168h263c363 0 539-218 539-580 0-358-176-574-521-574H370v1154" id="af"/><g id="p"><use transform="matrix(0.008173828125000001,0,0,0.008173828125000001,0,0)" xlink:href="#af"/><use transform="matrix(0.008173828125000001,0,0,0.008173828125000001,12.08091796875,0)" xlink:href="#K"/><use transform="matrix(0.008173828125000001,0,0,0.008173828125000001,16.13513671875,0)" xlink:href="#D"/><use transform="matrix(0.008173828125000001,0,0,0.008173828125000001,24.971044921875002,0)" xlink:href="#K"/><use transform="matrix(0.008173828125000001,0,0,0.008173828125000001,29.025263671875003,0)" xlink:href="#D"/><use transform="matrix(0.008173828125000001,0,0,0.008173828125000001,37.861171875000004,0)" xlink:href="#Y"/><use transform="matrix(0.008173828125000001,0,0,0.008173828125000001,47.424550781250005,0)" xlink:href="#I"/><use transform="matrix(0.008173828125000001,0,0,0.008173828125000001,53.988134765625006,0)" xlink:href="#K"/><use transform="matrix(0.008173828125000001,0,0,0.008173828125000001,58.04235351562501,0)" xlink:href="#Z"/><use transform="matrix(0.008173828125000001,0,0,0.008173828125000001,67.4504296875,0)" xlink:href="#K"/></g><g id="q"><use transform="matrix(0.008173828125000001,0,0,0.008173828125000001,0,0)" xlink:href="#L"/><use transform="matrix(0.008173828125000001,0,0,0.008173828125000001,10.249980468750001,0)" xlink:href="#H"/><use transform="matrix(0.008173828125000001,0,0,0.008173828125000001,19.649882812500003,0)" xlink:href="#F"/><use transform="matrix(0.008173828125000001,0,0,0.008173828125000001,23.704101562500004,0)" xlink:href="#F"/><use transform="matrix(0.008173828125000001,0,0,0.008173828125000001,27.758320312500004,0)" xlink:href="#H"/></g><g id="r"><use transform="matrix(0.008173828125000001,0,0,0.008173828125000001,0,0)" xlink:href="#I"/><use transform="matrix(0.008173828125000001,0,0,0.008173828125000001,6.0241113281250005,0)" xlink:href="#J"/><use transform="matrix(0.008173828125000001,0,0,0.008173828125000001,15.783662109375001,0)" xlink:href="#G"/><use transform="matrix(0.008173828125000001,0,0,0.008173828125000001,21.096650390625,0)" xlink:href="#J"/></g><path d="M180 0v-1490h510c348 0 508 209 508 474 0 266-160 477-507 477H370V0H180zm190-706h312c236 0 327-133 327-310 0-176-91-307-329-307H370v617" id="ag"/><g id="s"><use transform="matrix(0.010850694444444444,0,0,0.010850694444444444,0,0)" xlink:href="#ag"/><use transform="matrix(0.010850694444444444,0,0,0.010850694444444444,14.073350694444445,0)" xlink:href="#J"/><use transform="matrix(0.010850694444444444,0,0,0.010850694444444444,27.029079861111104,0)" xlink:href="#I"/><use transform="matrix(0.010850694444444444,0,0,0.010850694444444444,35.39496527777777,0)" xlink:href="#D"/><use transform="matrix(0.010850694444444444,0,0,0.010850694444444444,47.12456597222221,0)" xlink:href="#B"/><use transform="matrix(0.010850694444444444,0,0,0.010850694444444444,60.449218749999986,0)" xlink:href="#C"/><use transform="matrix(0.010850694444444444,0,0,0.010850694444444444,73.57855902777777,0)" xlink:href="#H"/></g></defs></g></svg>